<svg width="89" height="15" viewBox="0 0 89 15" fill="none" xmlns="http://www.w3.org/2000/svg">
<path d="M2.86312 11.1763L0.0566406 3H2.41619L4.1382 8.58668H4.17106L5.89308 3H8.12775L5.3607 11.1828H2.86312V11.1763Z" fill="#101010"/>
<path d="M8.3064 5.74076C8.33926 5.21495 8.47071 4.77459 8.70075 4.42625C8.93079 4.0779 9.22656 3.80185 9.58805 3.58496C9.94954 3.37464 10.3505 3.22347 10.7974 3.13145C11.2443 3.03944 11.6978 3 12.1513 3C12.5654 3 12.9795 3.02629 13.4001 3.08544C13.8208 3.1446 14.2086 3.25633 14.5569 3.42722C14.9053 3.5981 15.1879 3.82814 15.4113 4.13048C15.6348 4.43282 15.7465 4.82717 15.7465 5.32669V9.58571C15.7465 9.95377 15.7663 10.3087 15.8123 10.6439C15.8517 10.9791 15.9306 11.2354 16.0357 11.4063H13.7551C13.7156 11.2814 13.6762 11.15 13.6499 11.0185C13.6236 10.8871 13.6039 10.7556 13.5973 10.6176C13.2358 10.9857 12.8152 11.2486 12.3288 11.3932C11.8424 11.5378 11.3495 11.6166 10.8434 11.6166C10.4556 11.6166 10.0876 11.5706 9.75236 11.472C9.41716 11.38 9.1214 11.2288 8.86507 11.0317C8.60874 10.8345 8.41156 10.5782 8.27354 10.2693C8.12894 9.96035 8.05664 9.59885 8.05664 9.17821C8.05664 8.71156 8.13551 8.33035 8.29983 8.02801C8.46414 7.72567 8.67446 7.48906 8.93079 7.30503C9.18712 7.12757 9.48289 6.98955 9.81809 6.9041C10.1533 6.81209 10.4885 6.74636 10.8237 6.69378C11.1589 6.6412 11.4941 6.60176 11.8227 6.5689C12.1513 6.53604 12.4405 6.49003 12.6903 6.42431C12.9466 6.35858 13.1438 6.26657 13.295 6.14826C13.4396 6.02995 13.5119 5.85249 13.4987 5.61588C13.4987 5.37269 13.4593 5.18209 13.3804 5.03749C13.3015 4.8929 13.1964 4.78117 13.0649 4.7023C12.9335 4.62342 12.7823 4.57084 12.6049 4.54455C12.434 4.51826 12.2434 4.50512 12.0462 4.50512C11.6058 4.50512 11.2575 4.59713 11.0011 4.78774C10.7448 4.97834 10.6002 5.29383 10.5608 5.73419H8.3064V5.74076ZM13.4987 7.40362C13.4067 7.48906 13.2818 7.55479 13.1438 7.60079C12.9992 7.6468 12.848 7.68624 12.6837 7.7191C12.5194 7.75196 12.3485 7.77825 12.1711 7.79797C11.9936 7.81769 11.8096 7.84398 11.6321 7.87684C11.4612 7.90971 11.2969 7.94914 11.1326 8.00172C10.9683 8.0543 10.8237 8.1266 10.7054 8.21204C10.5871 8.30406 10.4885 8.41579 10.4096 8.55382C10.3373 8.69184 10.2979 8.86273 10.2979 9.07305C10.2979 9.2768 10.3373 9.44111 10.4096 9.57914C10.4819 9.71716 10.5805 9.82232 10.712 9.90119C10.8368 9.98006 10.988 10.0326 11.1523 10.0655C11.3232 10.0984 11.4941 10.1115 11.6716 10.1115C12.1119 10.1115 12.4603 10.0392 12.7034 9.88804C12.9466 9.74345 13.1241 9.56599 13.2424 9.35567C13.3607 9.15192 13.4264 8.9416 13.4593 8.73128C13.4856 8.52095 13.4987 8.35007 13.4987 8.22519V7.40362Z" fill="#101010"/>
<path d="M19.3045 0V11.2982H17.0566V0H19.3045Z" fill="#101010"/>
<path d="M23.2979 0V6.0599L26.1307 3.1154H28.7925L25.7034 6.12563L29.1409 11.2982H26.4199L24.172 7.64389L23.3045 8.48518V11.3048H21.0566V0H23.2979Z" fill="#101010"/>
<path d="M29.359 5.53701C29.5562 5.00463 29.8453 4.55112 30.2134 4.17649C30.5815 3.80185 31.0284 3.51266 31.5411 3.30891C32.0603 3.10516 32.6387 3 33.2828 3C33.9269 3 34.5119 3.10516 35.0311 3.30891C35.5503 3.51266 35.9973 3.80185 36.3653 4.17649C36.7334 4.55112 37.0226 5.00463 37.2198 5.53701C37.4169 6.06938 37.5221 6.66091 37.5221 7.31817C37.5221 7.97543 37.4235 8.56038 37.2198 9.09276C37.016 9.61857 36.7334 10.0721 36.3653 10.4467C35.9973 10.8213 35.5503 11.1105 35.0311 11.3077C34.5119 11.5049 33.9269 11.6101 33.2828 11.6101C32.6387 11.6101 32.0603 11.5115 31.5411 11.3077C31.0218 11.1105 30.5815 10.8213 30.2134 10.4467C29.8453 10.0721 29.5562 9.61857 29.359 9.09276C29.1552 8.56696 29.0566 7.97543 29.0566 7.31817C29.0566 6.66749 29.1552 6.06938 29.359 5.53701ZM31.3965 8.27777C31.4622 8.58668 31.5674 8.8693 31.7185 9.11905C31.8697 9.36881 32.0734 9.56599 32.3298 9.71058C32.5861 9.86175 32.9016 9.93405 33.2762 9.93405C33.6574 9.93405 33.9729 9.86175 34.2358 9.71058C34.4921 9.56599 34.7025 9.36224 34.8536 9.11905C35.0048 8.8693 35.1165 8.59325 35.1757 8.27777C35.2414 7.96886 35.2677 7.6468 35.2677 7.31817C35.2677 6.98954 35.2348 6.66749 35.1757 6.35201C35.11 6.03652 35.0048 5.7539 34.8536 5.51072C34.7025 5.26753 34.4921 5.07035 34.2358 4.91918C33.9795 4.76802 33.6574 4.68915 33.2762 4.68915C32.895 4.68915 32.5795 4.76802 32.3298 4.91918C32.0734 5.07035 31.8763 5.26753 31.7185 5.51072C31.5674 5.7539 31.4556 6.02995 31.3965 6.35201C31.3307 6.66749 31.3045 6.98954 31.3045 7.31817C31.3045 7.6468 31.3373 7.96886 31.3965 8.27777Z" fill="#101010"/>
<path d="M40.8566 11.1828L38.0566 3H40.4162L42.1382 8.58668H42.1711L43.8931 3H46.1278L43.3607 11.1828H40.8566Z" fill="#101010"/>
<path d="M48.3373 9.37538C48.4359 9.54627 48.5674 9.69087 48.7251 9.8026C48.8828 9.91433 49.0669 9.99321 49.2706 10.0458C49.4744 10.0984 49.6913 10.1247 49.9147 10.1247C50.0725 10.1247 50.2368 10.1049 50.4143 10.0721C50.5851 10.0326 50.7494 9.98006 50.8875 9.89462C51.0321 9.81575 51.1504 9.71059 51.2424 9.57914C51.3344 9.44769 51.387 9.28337 51.387 9.07962C51.387 8.74442 51.1635 8.48809 50.7166 8.3172C50.2697 8.14632 49.6453 7.982 48.8434 7.81112C48.5148 7.73882 48.1993 7.65337 47.8838 7.54821C47.5749 7.44963 47.2923 7.31817 47.0557 7.15386C46.8125 6.98955 46.6153 6.78579 46.4707 6.53604C46.3261 6.28628 46.2472 5.98394 46.2472 5.62902C46.2472 5.10322 46.3524 4.66943 46.5562 4.33423C46.7599 3.99903 47.036 3.72956 47.3712 3.53238C47.7064 3.3352 48.0876 3.19718 48.5082 3.11831C48.9289 3.03943 49.3626 3 49.803 3C50.2434 3 50.6772 3.03944 51.0912 3.12488C51.5053 3.21032 51.8799 3.35492 52.2086 3.5521C52.5372 3.75585 52.8067 4.01875 53.0236 4.35395C53.2404 4.68915 53.3719 5.10322 53.4113 5.60931H51.2753C51.2424 5.17552 51.0781 4.88632 50.7823 4.72858C50.4865 4.57741 50.1382 4.49854 49.7373 4.49854C49.6124 4.49854 49.4744 4.50512 49.3232 4.52484C49.1786 4.53798 49.0406 4.57741 48.9223 4.62999C48.804 4.68257 48.6988 4.76145 48.6134 4.86003C48.5279 4.95862 48.4885 5.09665 48.4885 5.26096C48.4885 5.46471 48.5608 5.62245 48.712 5.75391C48.8566 5.87878 49.0537 5.98395 49.2903 6.06282C49.527 6.14169 49.7964 6.21398 50.1053 6.27313C50.4143 6.33886 50.7232 6.40459 51.0386 6.47689C51.3673 6.54919 51.6828 6.6412 51.9982 6.74636C52.3071 6.85152 52.5832 6.98955 52.8264 7.16701C53.0696 7.34446 53.2667 7.55478 53.4113 7.81769C53.5559 8.07402 53.6348 8.39607 53.6348 8.77728C53.6348 9.31623 53.5296 9.76317 53.3127 10.1312C53.0959 10.4927 52.8132 10.7885 52.4649 11.012C52.1165 11.2354 51.7156 11.3866 51.2687 11.4786C50.8218 11.5706 50.3617 11.6101 49.9016 11.6101C49.4284 11.6101 48.9617 11.564 48.5082 11.4655C48.0547 11.3734 47.6538 11.2091 47.2989 10.9922C46.9439 10.7688 46.6547 10.4796 46.4313 10.1115C46.2012 9.75002 46.0829 9.28994 46.0566 8.74442H48.1862C48.1862 8.99418 48.2387 9.2045 48.3373 9.37538Z" fill="#101010"/>
<path d="M57.2979 0V6.0599L60.1307 3.1154H62.7925L59.7034 6.12563L63.1409 11.2982H60.4198L58.172 7.64389L57.3045 8.48518V11.3048H55.0566V0H57.2979Z" fill="#101010"/>
<path d="M63.3064 5.74076C63.3393 5.21495 63.4707 4.77459 63.7007 4.42625C63.9308 4.0779 64.2266 3.80185 64.588 3.58496C64.9495 3.37464 65.3505 3.22347 65.7974 3.13145C66.2443 3.03944 66.6978 3 67.1513 3C67.5654 3 67.9795 3.02629 68.4001 3.08544C68.8208 3.1446 69.2086 3.25633 69.5569 3.42722C69.9052 3.5981 70.1879 3.82814 70.4113 4.13048C70.6348 4.43282 70.7465 4.82717 70.7465 5.32669V9.58571C70.7465 9.95377 70.7663 10.3087 70.8123 10.6439C70.8517 10.9791 70.9306 11.2354 71.0357 11.4063H68.755C68.7156 11.2814 68.6762 11.15 68.6499 11.0185C68.6236 10.8871 68.6039 10.7556 68.5973 10.6176C68.2358 10.9857 67.8152 11.2486 67.3288 11.3932C66.8424 11.5378 66.3495 11.6166 65.8434 11.6166C65.4556 11.6166 65.0876 11.5706 64.7524 11.472C64.4172 11.38 64.1214 11.2288 63.8651 11.0317C63.6087 10.8345 63.4116 10.5782 63.2735 10.2693C63.1289 9.96035 63.0566 9.59885 63.0566 9.17821C63.0566 8.71156 63.1355 8.33035 63.2998 8.02801C63.4641 7.72567 63.6745 7.48906 63.9308 7.30503C64.1871 7.12757 64.4829 6.98955 64.8181 6.9041C65.1533 6.81209 65.4885 6.74636 65.8237 6.69378C66.1589 6.6412 66.4941 6.60176 66.8227 6.5689C67.1513 6.53604 67.4405 6.49003 67.6903 6.42431C67.9466 6.35858 68.1438 6.26657 68.295 6.14826C68.4396 6.02995 68.5119 5.85249 68.4987 5.61588C68.4987 5.37269 68.4593 5.18209 68.3804 5.03749C68.3015 4.8929 68.1964 4.78117 68.0649 4.7023C67.9335 4.62342 67.7823 4.57084 67.6049 4.54455C67.434 4.51826 67.2434 4.50512 67.0462 4.50512C66.6058 4.50512 66.2575 4.59713 66.0011 4.78774C65.7448 4.97834 65.6002 5.29383 65.5608 5.73419H63.3064V5.74076ZM68.4987 7.40362C68.4067 7.48906 68.2818 7.55479 68.1438 7.60079C67.9992 7.6468 67.848 7.68624 67.6837 7.7191C67.5194 7.75196 67.3485 7.77825 67.1711 7.79797C66.9936 7.81769 66.8096 7.84398 66.6321 7.87684C66.4612 7.90971 66.2969 7.94914 66.1326 8.00172C65.9683 8.0543 65.8237 8.1266 65.7054 8.21204C65.5871 8.30406 65.4885 8.41579 65.4096 8.55382C65.3373 8.69184 65.2979 8.86273 65.2979 9.07305C65.2979 9.2768 65.3373 9.44111 65.4096 9.57914C65.4819 9.71716 65.5805 9.82232 65.7119 9.90119C65.8368 9.98006 65.988 10.0326 66.1523 10.0655C66.3232 10.0984 66.4941 10.1115 66.6715 10.1115C67.1119 10.1115 67.4603 10.0392 67.7034 9.88804C67.9466 9.74345 68.1241 9.56599 68.2424 9.35567C68.3607 9.15192 68.4264 8.9416 68.4593 8.73128C68.4856 8.52095 68.4987 8.35007 68.4987 8.22519V7.40362Z" fill="#101010"/>
<path d="M73.2124 14.0419C72.9824 14.0419 72.7524 14.0353 72.5223 14.0156C72.2923 14.0025 72.0688 13.9827 71.8322 13.963L73.1664 13.6278C73.3768 13.6476 73.8303 12.6419 73.9814 12.3462C74.0932 12.1293 74.1655 11.8467 74.1655 11.6035C74.1655 11.426 73.9814 10.8279 73.9223 10.6702L71.0566 3H73.4491L75.3025 8.59982H75.3354L77.1231 3H79.4498L76.0321 12.195C75.4865 13.641 75.1316 14.0419 73.2124 14.0419Z" fill="#101010"/>
<path d="M80.3064 5.74076C80.3393 5.21495 80.4707 4.77459 80.7007 4.42625C80.9308 4.0779 81.2266 3.80185 81.588 3.58496C81.9495 3.37464 82.3505 3.22347 82.7974 3.13145C83.2443 3.03944 83.6978 3 84.1513 3C84.5654 3 84.9795 3.02629 85.4001 3.08544C85.8208 3.1446 86.2086 3.25633 86.5569 3.42722C86.9053 3.5981 87.1879 3.82814 87.4113 4.13048C87.6348 4.43282 87.7465 4.82717 87.7465 5.32669V9.58571C87.7465 9.95377 87.7663 10.3087 87.8123 10.6439C87.8517 10.9791 87.9306 11.2354 88.0357 11.4063H85.755C85.7156 11.2814 85.6762 11.15 85.6499 11.0185C85.6236 10.8871 85.6039 10.7556 85.5973 10.6176C85.2358 10.9857 84.8152 11.2486 84.3288 11.3932C83.8424 11.5378 83.3495 11.6166 82.8434 11.6166C82.4556 11.6166 82.0876 11.5706 81.7524 11.472C81.4172 11.38 81.1214 11.2288 80.8651 11.0317C80.6087 10.8345 80.4116 10.5782 80.2735 10.2693C80.1289 9.96035 80.0566 9.59885 80.0566 9.17821C80.0566 8.71156 80.1355 8.33035 80.2998 8.02801C80.4641 7.72567 80.6745 7.48906 80.9308 7.30503C81.1871 7.12757 81.4829 6.98955 81.8181 6.9041C82.1533 6.81209 82.4885 6.74636 82.8237 6.69378C83.1589 6.6412 83.4941 6.60176 83.8227 6.5689C84.1513 6.53604 84.4405 6.49003 84.6903 6.42431C84.9466 6.35858 85.1438 6.26657 85.295 6.14826C85.4396 6.02995 85.5119 5.85249 85.4987 5.61588C85.4987 5.37269 85.4593 5.18209 85.3804 5.03749C85.3015 4.8929 85.1964 4.78117 85.0649 4.7023C84.9335 4.62342 84.7823 4.57084 84.6049 4.54455C84.434 4.51826 84.2434 4.50512 84.0462 4.50512C83.6058 4.50512 83.2575 4.59713 83.0011 4.78774C82.7448 4.97834 82.6002 5.29383 82.5608 5.73419H80.3064V5.74076ZM85.4987 7.40362C85.4067 7.48906 85.2818 7.55479 85.1438 7.60079C84.9992 7.6468 84.848 7.68624 84.6837 7.7191C84.5194 7.75196 84.3485 7.77825 84.1711 7.79797C83.9936 7.81769 83.8096 7.84398 83.6321 7.87684C83.4612 7.90971 83.2969 7.94914 83.1326 8.00172C82.9683 8.0543 82.8237 8.1266 82.7054 8.21204C82.5871 8.30406 82.4885 8.41579 82.4096 8.55382C82.3373 8.69184 82.2979 8.86273 82.2979 9.07305C82.2979 9.2768 82.3373 9.44111 82.4096 9.57914C82.4819 9.71716 82.5805 9.82232 82.712 9.90119C82.8368 9.98006 82.988 10.0326 83.1523 10.0655C83.3232 10.0984 83.4941 10.1115 83.6716 10.1115C84.1119 10.1115 84.4603 10.0392 84.7034 9.88804C84.9466 9.74345 85.1241 9.56599 85.2424 9.35567C85.3607 9.15192 85.4264 8.9416 85.4593 8.73128C85.4856 8.52095 85.4987 8.35007 85.4987 8.22519V7.40362Z" fill="#101010"/>
<path d="M0.0566406 13H74.5698L73.9125 14.4H0.0566406V13Z" fill="#101010"/>
</svg>
