<svg width="161" height="70" viewBox="0 0 161 70" fill="none" xmlns="http://www.w3.org/2000/svg">
<g clip-path="url(#clip0_138_4536)">
<path d="M119.554 61.7686C115.28 61.7686 112.745 59.5816 112.551 56.4315H116.638C116.638 57.4815 117.22 58.8793 119.748 58.9663C121.5 58.9663 122.47 57.9163 122.47 57.1271C122.276 55.9032 120.717 55.8161 119.166 55.5486C117.764 55.3829 116.389 55.032 115.079 54.5052C114.413 54.1324 113.862 53.5847 113.485 52.921C113.107 52.2574 112.919 51.5031 112.939 50.74C112.939 47.9377 115.28 45.7508 119.36 45.7508C123.252 45.7508 125.78 47.7639 125.967 50.8269H122.082C122.082 50.0445 121.888 48.727 119.554 48.727C117.995 48.727 117.026 48.9877 116.832 50.1246C116.832 51.703 120.135 51.6162 122.664 52.2248C124.998 52.8401 126.556 54.3248 126.556 56.4315C126.556 60.2838 123.446 61.7686 119.554 61.7686" fill="#101010"/>
<path d="M45.09 35.9227L58.5062 28.1311L65.7025 40.4774H47.6184" fill="#101010"/>
<path d="M73.3022 61.3038V45.7209Z" fill="#101010"/>
<path d="M73.3022 61.3038V45.7209" stroke="#101010" stroke-width="3.92596"/>
<path d="M38.8634 53.743C38.8634 56.1908 41.0036 58.2039 43.331 58.2039C45.8657 58.2039 47.8052 56.1908 47.8052 53.743C47.8052 51.3822 45.8657 49.2822 43.331 49.2822C42.16 49.3221 41.0477 49.8046 40.2185 50.6326C39.3894 51.4605 38.9051 52.5721 38.8634 53.743V53.743ZM43.137 61.7954C38.8634 61.7954 35.1717 58.2039 35.1717 53.743C35.1717 49.2822 38.8634 45.7776 43.137 45.7776C44.8893 45.7776 46.4476 46.2191 47.8052 47.1755V45.9515H51.6976V61.4409H47.8052V60.4777C46.6415 61.3539 44.8893 61.7954 43.137 61.7954Z" fill="#101010"/>
<path d="M95.0643 40.474L76.398 7.91699L89.8145 0.0385742L113.149 40.474" fill="#101010"/>
<path d="M56.7537 53.7427C56.7537 56.1905 58.6999 58.2036 61.2279 58.2036C63.5553 58.2036 65.7022 56.1905 65.7022 53.7427C65.6589 52.5712 65.1732 51.4596 64.343 50.6318C63.5127 49.8041 62.3996 49.3217 61.2279 49.2819C60.0452 49.2872 58.9123 49.7584 58.0747 50.5935C57.2371 51.4285 56.7625 52.56 56.7537 53.7427V53.7427ZM61.034 61.7951C59.9798 61.7969 58.9357 61.5892 57.9624 61.1842C56.9891 60.7792 56.106 60.1849 55.3643 59.4357C54.6226 58.6866 54.0372 57.7975 53.6419 56.8202C53.2467 55.8429 53.0495 54.7969 53.0619 53.7427C53.0619 49.2819 56.5597 45.7773 61.034 45.7773C62.7795 45.7773 64.3378 46.2188 65.7022 47.1752V40.6142H69.5879V61.4406H65.7022V60.4774C64.3081 61.3628 62.6853 61.821 61.034 61.7951" fill="#101010"/>
<path d="M60.842 22.0078L74.4525 14.3101L89.4264 40.4734H75.228V44.3256H71.3423V40.4734" fill="#101010"/>
<path d="M124.035 44.4467C123.526 44.4319 123.043 44.2248 122.682 43.8673C122.321 43.5098 122.108 43.0285 122.088 42.5206C122.108 42.0128 122.321 41.5315 122.682 41.174C123.043 40.8165 123.526 40.6094 124.035 40.5946C124.29 40.5873 124.545 40.632 124.783 40.726C125.021 40.82 125.238 40.9611 125.42 41.1411C125.602 41.3212 125.745 41.5363 125.842 41.7734C125.938 42.0105 125.985 42.2647 125.981 42.5206C125.985 42.7766 125.938 43.0308 125.842 43.2679C125.745 43.505 125.602 43.7201 125.42 43.9002C125.238 44.0802 125.021 44.2215 124.783 44.3155C124.545 44.4095 124.29 44.454 124.035 44.4467V44.4467ZM124.035 40.8621C123.058 40.8621 122.476 41.6445 122.476 42.5206C122.476 43.3968 123.058 44.1859 124.035 44.1859C125.004 44.1859 125.586 43.3968 125.586 42.5206C125.586 41.6445 125.004 40.8621 124.035 40.8621Z" fill="#101010"/>
<path d="M124.436 43.5773L124.048 42.7011H123.66V43.5773H123.366V41.4771H124.242C124.436 41.4771 124.824 41.7447 124.824 42.0924C124.83 42.2216 124.797 42.3497 124.727 42.4588C124.658 42.5679 124.556 42.6526 124.436 42.7011L124.824 43.5773H124.436ZM124.048 41.7447H123.66V42.4402H124.048C124.436 42.4402 124.436 42.3533 124.436 42.0924C124.436 41.9119 124.436 41.7447 124.048 41.7447ZM98.3528 53.7429C98.3528 56.1907 100.299 58.2037 102.827 58.2037C105.161 58.2037 107.295 56.1907 107.295 53.7429C107.255 52.5714 106.771 51.4588 105.941 50.6306C105.112 49.8023 103.999 49.3204 102.827 49.2821C101.644 49.2873 100.511 49.7586 99.6738 50.5936C98.8363 51.4287 98.3616 52.5602 98.3528 53.7429V53.7429ZM102.626 61.7953C101.573 61.7962 100.529 61.588 99.5569 61.1826C98.5844 60.7771 97.7021 60.1825 96.9611 59.4334C96.2201 58.6843 95.6352 57.7958 95.2404 56.8189C94.8456 55.842 94.6487 54.7965 94.6611 53.7429C94.6611 49.282 98.1589 45.7775 102.626 45.7775C104.379 45.7775 105.937 46.219 107.295 47.1754V45.9514H110.993V61.4407H107.295V60.4776C105.901 61.3648 104.278 61.8231 102.626 61.7953V61.7953ZM80.4759 53.7429C80.4759 56.1907 82.616 58.2037 84.9501 58.2037C87.4782 58.2037 89.4244 56.1907 89.4244 53.7429C89.4156 52.5602 88.9409 51.4287 88.1034 50.5936C87.2658 49.7586 86.1328 49.2873 84.9501 49.2821C83.7779 49.3203 82.664 49.8021 81.8334 50.6302C81.0029 51.4582 80.5176 52.5708 80.4759 53.7429V53.7429ZM89.4244 40.6144H93.3101V61.4407H89.4244V60.4776C88.1139 61.3874 86.5445 61.8496 84.9501 61.7953C80.4759 61.7953 76.7841 58.2038 76.7841 53.7429C76.7841 49.282 80.4759 45.7775 84.9501 45.7775C86.6957 45.7775 88.254 46.219 89.4244 47.1754V40.6144Z" fill="#101010"/>
</g>
<defs>
<clipPath id="clip0_138_4536">
<rect width="91.4772" height="61.8339" fill="white" transform="translate(35.125)"/>
</clipPath>
</defs>
</svg>
