<svg width="161" height="70" viewBox="0 0 161 70" fill="none" xmlns="http://www.w3.org/2000/svg">
<g clip-path="url(#clip0_141_4758)">
<path d="M119.497 61.7686C115.223 61.7686 112.689 59.5816 112.495 56.4315H116.581C116.581 57.4815 117.163 58.8793 119.691 58.9663C121.443 58.9663 122.413 57.9163 122.413 57.1271C122.219 55.9032 120.661 55.8161 119.109 55.5486C117.707 55.3829 116.333 55.032 115.023 54.5052C114.357 54.1324 113.805 53.5847 113.428 52.921C113.051 52.2574 112.862 51.5031 112.883 50.74C112.883 47.9377 115.223 45.7508 119.303 45.7508C123.195 45.7508 125.723 47.7639 125.911 50.8269H122.025C122.025 50.0445 121.831 48.727 119.497 48.727C117.939 48.727 116.969 48.9877 116.775 50.1246C116.775 51.703 120.079 51.6162 122.607 52.2248C124.941 52.8401 126.499 54.3248 126.499 56.4315C126.499 60.2838 123.389 61.7686 119.497 61.7686" fill="white"/>
<path d="M45.0334 35.9227L58.4496 28.1311L65.6459 40.4774H47.5618" fill="white"/>
<path d="M73.2456 61.3038V45.7209Z" fill="white"/>
<path d="M73.2456 61.3038V45.7209" stroke="white" stroke-width="3.92596"/>
<path d="M38.8068 53.743C38.8068 56.1908 40.9469 58.2039 43.2743 58.2039C45.809 58.2039 47.7485 56.1908 47.7485 53.743C47.7485 51.3822 45.809 49.2822 43.2743 49.2822C42.1033 49.3221 40.991 49.8046 40.1618 50.6326C39.3327 51.4605 38.8484 52.5721 38.8068 53.743V53.743ZM43.0804 61.7954C38.8068 61.7954 35.115 58.2039 35.115 53.743C35.115 49.2822 38.8068 45.7776 43.0804 45.7776C44.8326 45.7776 46.3909 46.2191 47.7485 47.1755V45.9515H51.6409V61.4409H47.7485V60.4777C46.5848 61.3539 44.8326 61.7954 43.0804 61.7954Z" fill="white"/>
<path d="M95.0076 40.474L76.3413 7.91699L89.7577 0.0385742L113.092 40.474" fill="white"/>
<path d="M56.697 53.7427C56.697 56.1905 58.6431 58.2036 61.1712 58.2036C63.4986 58.2036 65.6454 56.1905 65.6454 53.7427C65.6021 52.5712 65.1165 51.4596 64.2862 50.6318C63.456 49.8041 62.3429 49.3217 61.1712 49.2819C59.9885 49.2872 58.8555 49.7584 58.0179 50.5935C57.1804 51.4285 56.7057 52.56 56.697 53.7427V53.7427ZM60.9772 61.7951C59.923 61.7969 58.879 61.5892 57.9057 61.1842C56.9324 60.7792 56.0492 60.1849 55.3075 59.4357C54.5659 58.6866 53.9804 57.7975 53.5852 56.8202C53.1899 55.8429 52.9928 54.7969 53.0052 53.7427C53.0052 49.2819 56.503 45.7773 60.9772 45.7773C62.7228 45.7773 64.2811 46.2188 65.6454 47.1752V40.6142H69.5311V61.4406H65.6454V60.4774C64.2513 61.3628 62.6286 61.821 60.9772 61.7951" fill="white"/>
<path d="M60.7854 22.0078L74.3959 14.3101L89.3698 40.4734H75.1714V44.3256H71.2857V40.4734" fill="white"/>
<path d="M123.978 44.4467C123.47 44.4319 122.986 44.2248 122.625 43.8673C122.264 43.5098 122.052 43.0285 122.032 42.5206C122.052 42.0128 122.264 41.5315 122.625 41.174C122.986 40.8165 123.47 40.6094 123.978 40.5946C124.234 40.5873 124.488 40.632 124.727 40.726C124.965 40.82 125.181 40.9611 125.363 41.1411C125.545 41.3212 125.689 41.5363 125.785 41.7734C125.881 42.0105 125.929 42.2647 125.924 42.5206C125.929 42.7766 125.881 43.0308 125.785 43.2679C125.689 43.505 125.545 43.7201 125.363 43.9002C125.181 44.0802 124.965 44.2215 124.727 44.3155C124.488 44.4095 124.234 44.454 123.978 44.4467V44.4467ZM123.978 40.8621C123.001 40.8621 122.42 41.6445 122.42 42.5206C122.42 43.3968 123.001 44.1859 123.978 44.1859C124.948 44.1859 125.53 43.3968 125.53 42.5206C125.53 41.6445 124.948 40.8621 123.978 40.8621Z" fill="white"/>
<path d="M124.379 43.5773L123.991 42.7011H123.603V43.5773H123.309V41.4771H124.185C124.379 41.4771 124.767 41.7447 124.767 42.0924C124.774 42.2216 124.74 42.3497 124.67 42.4588C124.601 42.5679 124.499 42.6526 124.379 42.7011L124.767 43.5773H124.379ZM123.991 41.7447H123.603V42.4402H123.991C124.379 42.4402 124.379 42.3533 124.379 42.0924C124.379 41.9119 124.379 41.7447 123.991 41.7447ZM98.2962 53.7429C98.2962 56.1907 100.242 58.2037 102.77 58.2037C105.105 58.2037 107.238 56.1907 107.238 53.7429C107.198 52.5714 106.714 51.4588 105.885 50.6306C105.055 49.8023 103.942 49.3204 102.77 49.2821C101.588 49.2873 100.455 49.7586 99.6172 50.5936C98.7797 51.4287 98.305 52.5602 98.2962 53.7429V53.7429ZM102.57 61.7953C101.516 61.7962 100.473 61.588 99.5003 61.1826C98.5278 60.7771 97.6455 60.1825 96.9045 59.4334C96.1635 58.6843 95.5786 57.7958 95.1838 56.8189C94.789 55.842 94.5921 54.7965 94.6045 53.7429C94.6045 49.282 98.1023 45.7775 102.57 45.7775C104.322 45.7775 105.88 46.219 107.238 47.1754V45.9514H110.936V61.4407H107.238V60.4776C105.845 61.3648 104.221 61.8231 102.57 61.7953V61.7953ZM80.4193 53.7429C80.4193 56.1907 82.5594 58.2037 84.8935 58.2037C87.4216 58.2037 89.3678 56.1907 89.3678 53.7429C89.359 52.5602 88.8844 51.4287 88.0468 50.5936C87.2092 49.7586 86.0763 49.2873 84.8935 49.2821C83.7213 49.3203 82.6074 49.8021 81.7768 50.6302C80.9463 51.4582 80.4611 52.5708 80.4193 53.7429V53.7429ZM89.3678 40.6144H93.2535V61.4407H89.3678V60.4776C88.0573 61.3874 86.488 61.8496 84.8935 61.7953C80.4193 61.7953 76.7275 58.2038 76.7275 53.7429C76.7275 49.282 80.4193 45.7775 84.8935 45.7775C86.6391 45.7775 88.1974 46.219 89.3678 47.1754V40.6144Z" fill="white"/>
</g>
<defs>
<clipPath id="clip0_141_4758">
<rect width="91.4772" height="61.8339" fill="white" transform="translate(35.0684)"/>
</clipPath>
</defs>
</svg>
