<svg width="160" height="70" viewBox="0 0 160 70" fill="none" xmlns="http://www.w3.org/2000/svg">
<g clip-path="url(#clip0_139_4112)">
<path d="M105.732 28.7663C105.782 28.7736 105.833 28.7692 105.881 28.7533C105.929 28.7374 105.973 28.7105 106.008 28.6748C106.044 28.6391 106.071 28.5955 106.087 28.5476C106.103 28.4997 106.107 28.4487 106.1 28.3987V25.4392C106.107 25.3892 106.103 25.3382 106.087 25.2902C106.071 25.2423 106.044 25.1987 106.008 25.163C105.973 25.1273 105.929 25.1004 105.881 25.0845C105.833 25.0687 105.782 25.0642 105.732 25.0716H95.8755C95.8256 25.0642 95.7746 25.0687 95.7266 25.0845C95.6787 25.1004 95.6351 25.1273 95.5994 25.163C95.5637 25.1987 95.5368 25.2423 95.521 25.2902C95.5051 25.3382 95.5006 25.3892 95.5079 25.4392V28.3987C95.5006 28.4487 95.5051 28.4997 95.521 28.5476C95.5368 28.5955 95.5637 28.6391 95.5994 28.6748C95.6351 28.7105 95.6787 28.7374 95.7266 28.7533C95.7746 28.7692 95.8256 28.7736 95.8755 28.7663H98.4612C98.5112 28.7589 98.5622 28.7634 98.6102 28.7793C98.6581 28.7951 98.7016 28.822 98.7374 28.8577C98.7731 28.8935 98.8 28.937 98.8159 28.985C98.8317 29.0329 98.8362 29.0839 98.8288 29.1339V44.4175C98.8215 44.4675 98.8259 44.5185 98.8418 44.5664C98.8577 44.6144 98.8846 44.6579 98.9203 44.6937C98.956 44.7294 98.9996 44.7562 99.0475 44.7721C99.0955 44.788 99.1465 44.7924 99.1964 44.7851H102.43C102.48 44.7924 102.531 44.788 102.579 44.7721C102.627 44.7562 102.671 44.7294 102.706 44.6937C102.742 44.6579 102.769 44.6144 102.785 44.5664C102.801 44.5185 102.805 44.4675 102.798 44.4175V29.1401C102.79 29.0901 102.795 29.0391 102.811 28.9912C102.827 28.9433 102.853 28.8997 102.889 28.864C102.925 28.8283 102.968 28.8014 103.016 28.7855C103.064 28.7696 103.115 28.7652 103.165 28.7725L105.732 28.7663Z" fill="#00338D"/>
<path d="M84.2867 44.7977C84.3367 44.805 84.3877 44.8006 84.4356 44.7847C84.4836 44.7688 84.5271 44.7419 84.5628 44.7062C84.5986 44.6705 84.6254 44.627 84.6413 44.579C84.6572 44.5311 84.6616 44.4801 84.6543 44.4301V25.5701C84.6616 25.5201 84.6572 25.4691 84.6413 25.4212C84.6254 25.3733 84.5986 25.3297 84.5628 25.294C84.5271 25.2583 84.4836 25.2314 84.4356 25.2155C84.3877 25.1996 84.3367 25.1952 84.2867 25.2025H81.4518C81.3562 25.2084 81.2661 25.249 81.1984 25.3167C81.1307 25.3844 81.0901 25.4746 81.0842 25.5701V33.9503C81.0842 34.1995 80.9596 34.1995 80.9596 33.9503L77.5078 25.4455C77.415 25.3379 77.3016 25.2499 77.1743 25.1868C77.0469 25.1236 76.9083 25.0866 76.7664 25.0779H74.0561C74.0061 25.0706 73.9551 25.075 73.9072 25.0909C73.8592 25.1068 73.8157 25.1337 73.7799 25.1694C73.7442 25.2051 73.7174 25.2487 73.7015 25.2966C73.6856 25.3445 73.6812 25.3955 73.6885 25.4455V44.4239C73.6812 44.4738 73.6856 44.5248 73.7015 44.5728C73.7174 44.6207 73.7442 44.6643 73.7799 44.7C73.8157 44.7357 73.8592 44.7626 73.9072 44.7785C73.9551 44.7944 74.0061 44.7988 74.0561 44.7914H76.8848C76.9348 44.7988 76.9858 44.7944 77.0337 44.7785C77.0816 44.7626 77.1252 44.7357 77.1609 44.7C77.1966 44.6643 77.2235 44.6207 77.2394 44.5728C77.2553 44.5248 77.2597 44.4738 77.2524 44.4239V35.5515C77.2524 35.3023 77.2524 35.3023 77.377 35.5515L81.0717 44.5485C81.1178 44.645 81.1868 44.729 81.2725 44.793C81.3582 44.857 81.4583 44.8992 81.564 44.9161H84.2742L84.2867 44.7977Z" fill="#00338D"/>
<path d="M66.1743 36.7852C66.1743 36.5359 66.1743 36.5359 66.4236 36.5359H69.1339C69.2294 36.53 69.3195 36.4894 69.3873 36.4217C69.455 36.354 69.4956 36.2639 69.5015 36.1683V33.3334C69.5088 33.2834 69.5044 33.2325 69.4885 33.1845C69.4726 33.1366 69.4457 33.093 69.41 33.0573C69.3743 33.0216 69.3307 32.9947 69.2828 32.9788C69.2348 32.9629 69.1838 32.9585 69.1339 32.9658H66.4173C66.1681 32.9658 66.1681 32.9658 66.1681 32.7166V29.0219C66.1681 28.7726 66.1681 28.7726 66.4173 28.7726H71.1027C71.1527 28.78 71.2037 28.7755 71.2517 28.7596C71.2996 28.7438 71.3432 28.7169 71.3789 28.6812C71.4146 28.6455 71.4415 28.6019 71.4573 28.5539C71.4732 28.506 71.4777 28.455 71.4703 28.405V25.4455C71.4777 25.3955 71.4732 25.3445 71.4573 25.2966C71.4415 25.2487 71.4146 25.2051 71.3789 25.1694C71.3432 25.1337 71.2996 25.1068 71.2517 25.0909C71.2037 25.075 71.1527 25.0706 71.1027 25.0779H62.7226C62.6726 25.0706 62.6216 25.075 62.5737 25.0909C62.5257 25.1068 62.4822 25.1337 62.4465 25.1694C62.4107 25.2051 62.3839 25.2487 62.368 25.2966C62.3521 25.3445 62.3477 25.3955 62.355 25.4455V44.4239C62.3477 44.4738 62.3521 44.5248 62.368 44.5728C62.3839 44.6207 62.4107 44.6643 62.4465 44.7C62.4822 44.7357 62.5257 44.7626 62.5737 44.7785C62.6216 44.7943 62.6726 44.7988 62.7226 44.7914H71.1027C71.1527 44.7988 71.2037 44.7943 71.2517 44.7785C71.2996 44.7626 71.3432 44.7357 71.3789 44.7C71.4146 44.6643 71.4415 44.6207 71.4573 44.5728C71.4732 44.5248 71.4777 44.4738 71.4703 44.4239V41.4643C71.4777 41.4144 71.4732 41.3634 71.4573 41.3154C71.4415 41.2675 71.4146 41.2239 71.3789 41.1882C71.3432 41.1525 71.2996 41.1256 71.2517 41.1097C71.2037 41.0938 71.1527 41.0894 71.1027 41.0967H66.4173C66.1681 41.0967 66.1681 41.0967 66.1681 40.8475L66.1743 36.7852Z" fill="#00338D"/>
<path d="M54.0932 36.9098C54.0932 36.6606 54.0932 36.6606 54.2178 36.9098L57.1773 44.4301C57.3019 44.6793 57.4265 44.7977 57.6695 44.7977H60.872C61.1213 44.7977 61.2397 44.6731 61.1213 44.4301L57.4265 34.9409C57.3655 34.8269 57.3335 34.6995 57.3335 34.5702C57.3335 34.4408 57.3655 34.3135 57.4265 34.1995L60.7537 25.4767C60.8783 25.2274 60.7537 25.1091 60.5044 25.1091H57.3019C57.0527 25.1091 56.8097 25.2337 56.8097 25.4767L54.224 32.3801C54.0994 32.6294 54.0994 32.6294 54.0994 32.3801V25.4455C54.1067 25.3955 54.1023 25.3445 54.0864 25.2966C54.0705 25.2487 54.0437 25.2051 54.008 25.1694C53.9722 25.1337 53.9287 25.1068 53.8807 25.0909C53.8328 25.075 53.7818 25.0706 53.7318 25.0779H50.7723C50.7223 25.0706 50.6713 25.075 50.6234 25.0909C50.5754 25.1068 50.5319 25.1337 50.4961 25.1694C50.4604 25.2051 50.4335 25.2487 50.4177 25.2966C50.4018 25.3445 50.3973 25.3955 50.4047 25.4455V44.4239C50.3973 44.4738 50.4018 44.5248 50.4177 44.5728C50.4335 44.6207 50.4604 44.6643 50.4961 44.7C50.5319 44.7357 50.5754 44.7626 50.6234 44.7785C50.6713 44.7943 50.7223 44.7988 50.7723 44.7914H53.7318C53.7818 44.7988 53.8328 44.7943 53.8807 44.7785C53.9287 44.7626 53.9722 44.7357 54.008 44.7C54.0437 44.6643 54.0705 44.6207 54.0864 44.5728C54.1023 44.5248 54.1067 44.4738 54.0994 44.4239L54.0932 36.9098Z" fill="#00338D"/>
<path d="M133.097 36.9098C133.097 36.6606 133.097 36.6606 133.222 36.9098L136.181 44.4301C136.306 44.6793 136.43 44.7977 136.673 44.7977H139.876C140.125 44.7977 140.243 44.6731 140.125 44.4301L136.43 34.9409C136.369 34.8269 136.337 34.6995 136.337 34.5702C136.337 34.4408 136.369 34.3135 136.43 34.1995L139.757 25.4767C139.882 25.2274 139.757 25.1091 139.508 25.1091H136.306C136.056 25.1091 135.814 25.2337 135.814 25.4767L133.228 32.3801C133.103 32.6294 133.103 32.6294 133.103 32.3801V25.4455C133.111 25.3955 133.106 25.3445 133.09 25.2966C133.074 25.2487 133.047 25.2051 133.012 25.1694C132.976 25.1337 132.932 25.1068 132.885 25.0909C132.837 25.075 132.786 25.0706 132.736 25.0779H129.776C129.726 25.0706 129.675 25.075 129.627 25.0909C129.579 25.1068 129.536 25.1337 129.5 25.1694C129.464 25.2051 129.437 25.2487 129.421 25.2966C129.406 25.3445 129.401 25.3955 129.408 25.4455V44.4239C129.401 44.4738 129.406 44.5248 129.421 44.5728C129.437 44.6207 129.464 44.6643 129.5 44.7C129.536 44.7357 129.579 44.7626 129.627 44.7785C129.675 44.7943 129.726 44.7988 129.776 44.7914H132.736C132.786 44.7988 132.837 44.7943 132.885 44.7785C132.932 44.7626 132.976 44.7357 133.012 44.7C133.047 44.6643 133.074 44.6207 133.09 44.5728C133.106 44.5248 133.111 44.4738 133.103 44.4239L133.097 36.9098Z" fill="#00338D"/>
<path d="M35.6071 25.4455C35.6144 25.3955 35.61 25.3445 35.5941 25.2966C35.5782 25.2487 35.5514 25.2051 35.5156 25.1694C35.4799 25.1337 35.4364 25.1068 35.3884 25.0909C35.3405 25.075 35.2895 25.0706 35.2395 25.0779H32.28C32.23 25.0706 32.179 25.075 32.1311 25.0909C32.0831 25.1068 32.0395 25.1337 32.0038 25.1694C31.9681 25.2051 31.9412 25.2487 31.9254 25.2966C31.9095 25.3445 31.905 25.3955 31.9124 25.4455V44.4239C31.905 44.4738 31.9095 44.5248 31.9254 44.5728C31.9412 44.6207 31.9681 44.6643 32.0038 44.7C32.0395 44.7357 32.0831 44.7626 32.1311 44.7785C32.179 44.7943 32.23 44.7988 32.28 44.7914H35.2395C35.2895 44.7988 35.3405 44.7943 35.3884 44.7785C35.4364 44.7626 35.4799 44.7357 35.5156 44.7C35.5514 44.6643 35.5782 44.6207 35.5941 44.5728C35.61 44.5248 35.6144 44.4738 35.6071 44.4239V25.4455Z" fill="#00338D"/>
<path d="M92.4238 33.4581C91.3147 32.212 90.0811 31.3647 90.0811 30.2556C90.0813 29.8841 90.221 29.5261 90.4726 29.2527C90.7241 28.9792 91.0691 28.8102 91.4393 28.779H93.6574C93.7074 28.7863 93.7584 28.7819 93.8063 28.766C93.8543 28.7501 93.8979 28.7232 93.9336 28.6875C93.9693 28.6518 93.9961 28.6082 94.012 28.5603C94.0279 28.5123 94.0324 28.4613 94.025 28.4114V25.4518C94.0191 25.3563 93.9785 25.2661 93.9108 25.1984C93.8431 25.1307 93.753 25.0901 93.6574 25.0842H90.9471C87.863 25.0842 86.2617 27.1777 86.2617 30.1372C86.2617 32.6295 87.7384 34.2058 89.7135 36.0501C90.8225 37.0345 91.8069 37.9192 91.8069 39.2526C91.8338 39.4857 91.8077 39.7219 91.7305 39.9436C91.6533 40.1652 91.5269 40.3665 91.361 40.5325C91.195 40.6984 90.9937 40.8247 90.7721 40.9019C90.5505 40.9792 90.3142 41.0053 90.0811 40.9784H86.754C86.6584 40.9843 86.5683 41.025 86.5006 41.0927C86.4329 41.1604 86.3922 41.2505 86.3863 41.346V44.3056C86.379 44.3555 86.3835 44.4065 86.3993 44.4545C86.4152 44.5024 86.4421 44.546 86.4778 44.5817C86.5135 44.6174 86.5571 44.6443 86.605 44.6602C86.653 44.6761 86.704 44.6805 86.754 44.6732H91.0655C94.3926 44.7978 95.6263 41.9629 95.6263 39.128C95.5017 36.5423 94.1496 35.184 92.4238 33.4581" fill="#00338D"/>
<path d="M28.3356 34.5669L28.211 34.4423C28.2237 34.3477 28.2675 34.26 28.3356 34.1931C28.6976 33.8166 28.9819 33.3725 29.1722 32.886C29.3625 32.3996 29.4551 31.8804 29.4446 31.3582V29.0155C29.4446 26.3052 28.5848 25.0716 25.5007 25.0716H20.186C20.136 25.0642 20.085 25.0687 20.0371 25.0845C19.9891 25.1004 19.9456 25.1273 19.9098 25.163C19.8741 25.1987 19.8472 25.2423 19.8314 25.2902C19.8155 25.3382 19.811 25.3892 19.8184 25.4392V44.2929C19.8184 44.6605 19.943 44.7851 20.186 44.7851H25.7312C28.5661 44.7851 29.6752 42.6916 29.6752 39.8567V38.2554C29.6752 36.2866 29.4259 35.2959 28.3169 34.5607L28.3356 34.5669ZM23.5131 28.8909C23.5131 28.6417 23.5131 28.6417 23.7623 28.6417H24.6221C25.482 28.6417 25.8683 29.2647 25.8683 30.8597C25.8683 32.7289 25.376 32.9532 24.6221 32.9532H23.7623C23.5131 32.9532 23.5131 32.8286 23.5131 32.5856V28.8909ZM24.8714 41.3521H23.7623C23.5131 41.3521 23.5131 41.352 23.5131 41.1028V36.7913C23.5131 36.542 23.5131 36.542 23.7623 36.542H24.8714C25.7312 36.542 25.9804 37.2835 25.9804 38.7601C26.105 40.8536 25.7312 41.3458 24.8714 41.3458" fill="#00338D"/>
<path d="M48.7973 44.4237L45.5948 36.6604L45.844 36.5358C46.9531 36.0436 47.9375 34.9346 47.9375 32.9595V29.2647C47.9375 25.813 45.844 25.0716 43.3767 25.0716H38.4421C38.3921 25.0642 38.3411 25.0687 38.2932 25.0845C38.2452 25.1004 38.2016 25.1273 38.1659 25.163C38.1302 25.1987 38.1034 25.2423 38.0875 25.2902C38.0716 25.3382 38.0671 25.3892 38.0745 25.4392V44.2929C38.0671 44.3428 38.0716 44.3938 38.0875 44.4418C38.1034 44.4897 38.1302 44.5333 38.1659 44.569C38.2016 44.6048 38.2452 44.6316 38.2932 44.6475C38.3411 44.6634 38.3921 44.6678 38.4421 44.6605H41.277C41.327 44.6678 41.378 44.6634 41.4259 44.6475C41.4739 44.6316 41.5174 44.6048 41.5531 44.569C41.5889 44.5333 41.6157 44.4897 41.6316 44.4418C41.6475 44.3938 41.6519 44.3428 41.6446 44.2929V36.9097C41.6446 36.6604 41.6446 36.6604 41.7692 36.9097L44.7287 44.43C44.8534 44.6792 44.978 44.7976 45.221 44.7976H48.4235C48.7911 44.7976 48.7911 44.673 48.7911 44.43L48.7973 44.4237ZM44.3549 30.8722C44.3549 32.8411 44.1057 33.3645 43.2459 33.3645H41.9998C41.7505 33.3645 41.7505 33.3645 41.7505 33.1152V28.922C41.7505 28.6728 41.7505 28.6728 41.9998 28.6728H43.1088C44.0932 28.6728 44.3549 29.4143 44.3549 30.8909" fill="#00338D"/>
<path d="M126.194 44.7975C120.399 44.7975 119.782 40.6044 119.782 34.9408C119.782 29.1463 120.524 25.084 126.194 25.084H127.552C127.602 25.0767 127.653 25.0811 127.701 25.097C127.749 25.1129 127.792 25.1397 127.828 25.1755C127.864 25.2112 127.891 25.2548 127.906 25.3027C127.922 25.3506 127.927 25.4016 127.919 25.4516V28.4111C127.927 28.4611 127.922 28.5121 127.906 28.56C127.891 28.608 127.864 28.6516 127.828 28.6873C127.792 28.723 127.749 28.7499 127.701 28.7657C127.653 28.7816 127.602 28.7861 127.552 28.7787H126.194C123.975 28.7787 123.608 29.8878 123.608 34.9408C123.608 39.9938 123.975 41.1028 126.194 41.1028H127.552C127.602 41.0955 127.653 41.0999 127.701 41.1158C127.749 41.1317 127.792 41.1586 127.828 41.1943C127.864 41.23 127.891 41.2736 127.906 41.3215C127.922 41.3695 127.927 41.4205 127.919 41.4704V44.43C127.927 44.4799 127.922 44.5309 127.906 44.5789C127.891 44.6268 127.864 44.6704 127.828 44.7061C127.792 44.7418 127.749 44.7687 127.701 44.7846C127.653 44.8005 127.602 44.8049 127.552 44.7975H126.194Z" fill="#00338D"/>
<path d="M112.399 25.0779C118.193 25.0779 118.561 29.1465 118.561 34.9347C118.561 40.7229 118.193 44.7914 112.399 44.7914C106.605 44.7914 106.237 40.5983 106.237 34.9347C106.237 29.1402 106.605 25.0779 112.399 25.0779V25.0779ZM112.399 41.1029C114.617 41.1029 114.742 39.9939 114.742 34.9409C114.742 29.8879 114.742 28.6542 112.399 28.6542C110.181 28.6542 110.056 29.9004 110.056 34.9409C110.056 39.9814 110.181 41.1029 112.399 41.1029Z" fill="#00338D"/>
</g>
<defs>
<clipPath id="clip0_139_4112">
<rect width="120.337" height="19.8444" fill="white" transform="translate(19.8313 25.0779)"/>
</clipPath>
</defs>
</svg>
