<svg width="161" height="70" viewBox="0 0 161 70" fill="none" xmlns="http://www.w3.org/2000/svg">
<path d="M42.4189 34.5666C42.4189 34.5834 42.4259 34.5986 42.4371 34.6095C42.4604 38.1061 45.3317 40.9458 48.8535 40.9458C52.3896 40.9458 55.27 38.0828 55.27 34.5666V27.7264C55.27 27.6934 55.2433 27.6667 55.2104 27.6667H42.4785C42.4456 27.6667 42.4189 27.6934 42.4189 27.7264V34.5666ZM43.0799 28.2887H54.6631V34.5666C54.6631 37.7468 52.0536 40.3238 48.8715 40.3238C45.6716 40.3238 43.0799 37.7291 43.0799 34.5666V28.2887ZM130.518 36.1766C130.493 36.1766 130.47 36.1926 130.462 36.2164C129.621 38.5991 127.349 40.3239 124.666 40.3418C121.268 40.3417 118.514 37.6033 118.514 34.2255C118.514 30.8476 121.268 28.1092 124.667 28.1092C127.349 28.1092 129.621 29.8161 130.462 32.1986C130.47 32.2225 130.493 32.2384 130.518 32.2384H131.06C131.079 32.2384 131.097 32.2293 131.108 32.2139C131.119 32.1985 131.122 32.1787 131.116 32.1605C130.242 29.4436 127.691 27.4692 124.667 27.4692C120.932 27.4692 117.889 30.4938 117.889 34.2075C117.889 37.9212 120.932 40.9458 124.667 40.9458C127.673 40.9458 130.242 38.9715 131.116 36.2545C131.122 36.2364 131.119 36.2165 131.108 36.2011C131.097 36.1857 131.079 36.1766 131.06 36.1766H130.518ZM109.677 40.9458C109.71 40.9458 109.737 40.9191 109.737 40.8862V34.5185H116.143C116.176 34.5185 116.202 34.4918 116.202 34.4589V34.2075C116.202 30.4938 113.159 27.4692 109.424 27.4692C105.69 27.4692 102.647 30.4938 102.647 34.2075C102.647 37.9212 105.69 40.9458 109.424 40.9458H109.677ZM109.172 33.8965C109.139 33.8965 109.112 33.9232 109.112 33.9562V40.3212C105.868 40.1653 103.272 37.4758 103.272 34.2075C103.272 30.8297 106.026 28.0912 109.424 28.0912C112.712 28.0912 115.4 30.6719 115.574 33.8965H109.172ZM79.2293 40.9458C79.2622 40.9458 79.2889 40.9191 79.2889 40.8862V34.5185H85.6945C85.7275 34.5185 85.7542 34.4918 85.7542 34.4589V34.2075C85.7542 30.4938 82.7112 27.4692 78.9765 27.4692C75.2417 27.4692 72.1987 30.4938 72.1987 34.2075C72.1987 37.9212 75.2417 40.9458 78.9765 40.9458H79.2293ZM78.7236 33.8965C78.6907 33.8965 78.664 33.9232 78.664 33.9562V40.3212C75.4197 40.1653 72.8237 37.4758 72.8237 34.2075C72.8237 30.8297 75.5778 28.0912 78.9765 28.0912C82.2643 28.0912 84.9517 30.6719 85.1262 33.8965H78.7236ZM27.9462 40.2039C27.9462 40.171 27.9195 40.1443 27.8866 40.1443H18.4289V27.7264C18.4289 27.6934 18.4022 27.6667 18.3693 27.6667H17.8636C17.8307 27.6667 17.804 27.6934 17.804 27.7264V40.7066C17.804 40.7396 17.8307 40.7663 17.8636 40.7663H27.8866C27.9195 40.7663 27.9462 40.7396 27.9462 40.7066V40.2039ZM56.9567 44.2075C56.9567 44.2405 56.9834 44.2672 57.0163 44.2672H57.522C57.5549 44.2672 57.5816 44.2405 57.5816 44.2075V37.6546H57.5823L57.5809 37.6456L57.4411 36.7263C58.4485 39.2049 60.88 40.9637 63.7344 40.9637C67.4691 40.9637 70.5121 37.9392 70.5121 34.2255C70.5121 30.512 67.4693 27.4692 63.7344 27.4692C59.9996 27.4692 56.9567 30.4938 56.9567 34.2075V44.2075ZM137.373 33.76L143.418 27.7687C143.435 27.7517 143.44 27.726 143.431 27.7037C143.422 27.6813 143.4 27.6667 143.376 27.6667H142.654C142.638 27.6667 142.623 27.6729 142.612 27.684L134.027 36.1831V24.2075C134.027 24.1746 134 24.1479 133.967 24.1479H133.461C133.429 24.1479 133.402 24.1746 133.402 24.2075V40.6707C133.402 40.7037 133.429 40.7304 133.461 40.7304H133.967C134 40.7304 134.027 40.7037 134.027 40.6707V37.0511L136.927 34.185L143.134 40.7297C143.145 40.7416 143.161 40.7483 143.177 40.7483H143.864C143.887 40.7483 143.909 40.7341 143.918 40.7122C143.928 40.6903 143.923 40.6649 143.907 40.6476L137.373 33.76ZM100.353 30.7784H100.353L100.354 30.7874L100.494 31.7067C99.4863 29.2281 97.0548 27.4692 94.2005 27.4692C90.4657 27.4692 87.4228 30.4938 87.4228 34.2075C87.4228 37.9212 90.4657 40.9458 94.2005 40.9458C97.9352 40.9458 100.978 37.9212 100.978 34.2075V24.2075C100.978 24.1746 100.951 24.1479 100.919 24.1479H100.413C100.38 24.1479 100.353 24.1746 100.353 24.2075V30.7784ZM33.9726 27.4692C30.2378 27.4692 27.1949 30.4938 27.1949 34.2075C27.1949 37.9212 30.2378 40.9458 33.9726 40.9458C37.7073 40.9458 40.7503 37.9212 40.7503 34.2075C40.7503 30.4938 37.7073 27.4692 33.9726 27.4692ZM33.9726 40.3238C30.5739 40.3238 27.8198 37.5854 27.8198 34.2075C27.8198 30.8297 30.5739 28.0912 33.9726 28.0912C37.3712 28.0912 40.1254 30.8297 40.1254 34.2075C40.1254 37.5854 37.3712 40.3238 33.9726 40.3238ZM63.7344 40.3238C60.3357 40.3238 57.5816 37.5854 57.5816 34.2075C57.5816 30.8297 60.3357 28.0912 63.7344 28.0912C67.133 28.0912 69.8871 30.8297 69.8871 34.2075C69.8871 37.5854 67.133 40.3238 63.7344 40.3238ZM94.2005 40.3238C90.8018 40.3238 88.0477 37.5854 88.0477 34.2075C88.0477 30.8297 90.8018 28.0912 94.2005 28.0912C97.5991 28.0912 100.353 30.8297 100.353 34.2075C100.353 37.5854 97.5991 40.3238 94.2005 40.3238Z" fill="#101010" stroke="#101010" stroke-width="0.11927" stroke-linejoin="round"/>
</svg>
