<svg width="161" height="70" viewBox="0 0 161 70" fill="none" xmlns="http://www.w3.org/2000/svg">
<path d="M42.3621 34.5666C42.3621 34.5834 42.3691 34.5986 42.3803 34.6095C42.4036 38.1061 45.275 40.9458 48.7967 40.9458C52.3328 40.9458 55.2132 38.0828 55.2132 34.5666V27.7264C55.2132 27.6934 55.1865 27.6667 55.1536 27.6667H42.4218C42.3888 27.6667 42.3621 27.6934 42.3621 27.7264V34.5666ZM43.0232 28.2887H54.6064V34.5666C54.6064 37.7468 51.9968 40.3238 48.8148 40.3238C45.6149 40.3238 43.0232 37.7291 43.0232 34.5666V28.2887ZM130.461 36.1766C130.436 36.1766 130.413 36.1926 130.405 36.2164C129.564 38.5991 127.293 40.3239 124.61 40.3418C121.211 40.3417 118.457 37.6033 118.457 34.2255C118.457 30.8476 121.211 28.1092 124.61 28.1092C127.293 28.1092 129.564 29.8161 130.405 32.1986C130.413 32.2225 130.436 32.2384 130.461 32.2384H131.003C131.022 32.2384 131.04 32.2293 131.051 32.2139C131.062 32.1985 131.065 32.1787 131.06 32.1605C130.185 29.4436 127.634 27.4692 124.61 27.4692C120.875 27.4692 117.832 30.4938 117.832 34.2075C117.832 37.9212 120.875 40.9458 124.61 40.9458C127.616 40.9458 130.185 38.9715 131.06 36.2545C131.065 36.2364 131.062 36.2165 131.051 36.2011C131.04 36.1857 131.022 36.1766 131.003 36.1766H130.461ZM109.621 40.9458C109.654 40.9458 109.68 40.9191 109.68 40.8862V34.5185H116.086C116.119 34.5185 116.145 34.4918 116.145 34.4589V34.2075C116.145 30.4938 113.103 27.4692 109.368 27.4692C105.633 27.4692 102.59 30.4938 102.59 34.2075C102.59 37.9212 105.633 40.9458 109.368 40.9458H109.621ZM109.115 33.8965C109.082 33.8965 109.055 33.9232 109.055 33.9562V40.3212C105.811 40.1653 103.215 37.4758 103.215 34.2075C103.215 30.8297 105.969 28.0912 109.368 28.0912C112.656 28.0912 115.343 30.6719 115.518 33.8965H109.115ZM79.1725 40.9458C79.2055 40.9458 79.2322 40.9191 79.2322 40.8862V34.5185H85.6378C85.6707 34.5185 85.6974 34.4918 85.6974 34.4589V34.2075C85.6974 30.4938 82.6545 27.4692 78.9197 27.4692C75.1849 27.4692 72.142 30.4938 72.142 34.2075C72.142 37.9212 75.1849 40.9458 78.9197 40.9458H79.1725ZM78.6669 33.8965C78.6339 33.8965 78.6072 33.9232 78.6072 33.9562V40.3212C75.3629 40.1653 72.7669 37.4758 72.7669 34.2075C72.7669 30.8297 75.521 28.0912 78.9197 28.0912C82.2076 28.0912 84.8949 30.6719 85.0695 33.8965H78.6669ZM27.8895 40.2039C27.8895 40.171 27.8628 40.1443 27.8298 40.1443H18.3722V27.7264C18.3722 27.6934 18.3455 27.6667 18.3125 27.6667H17.8069C17.7739 27.6667 17.7472 27.6934 17.7472 27.7264V40.7066C17.7472 40.7396 17.7739 40.7663 17.8069 40.7663H27.8298C27.8628 40.7663 27.8895 40.7396 27.8895 40.7066V40.2039ZM56.8999 44.2075C56.8999 44.2405 56.9266 44.2672 56.9595 44.2672H57.4652C57.4981 44.2672 57.5248 44.2405 57.5248 44.2075V37.6546H57.5255L57.5241 37.6456L57.3844 36.7263C58.3918 39.2049 60.8232 40.9637 63.6776 40.9637C67.4124 40.9637 70.4553 37.9392 70.4553 34.2255C70.4553 30.512 67.4126 27.4692 63.6776 27.4692C59.9428 27.4692 56.8999 30.4938 56.8999 34.2075V44.2075ZM137.317 33.76L143.361 27.7687C143.378 27.7517 143.384 27.726 143.374 27.7037C143.365 27.6813 143.343 27.6667 143.319 27.6667H142.597C142.581 27.6667 142.566 27.6729 142.555 27.684L133.97 36.1831V24.2075C133.97 24.1746 133.943 24.1479 133.91 24.1479H133.405C133.372 24.1479 133.345 24.1746 133.345 24.2075V40.6707C133.345 40.7037 133.372 40.7304 133.405 40.7304H133.91C133.943 40.7304 133.97 40.7037 133.97 40.6707V37.0511L136.871 34.185L143.077 40.7297C143.089 40.7416 143.104 40.7483 143.121 40.7483H143.807C143.831 40.7483 143.852 40.7341 143.862 40.7122C143.871 40.6903 143.867 40.6649 143.85 40.6476L137.317 33.76ZM100.296 30.7784H100.296L100.297 30.7874L100.437 31.7067C99.4295 29.2281 96.9981 27.4692 94.1437 27.4692C90.4089 27.4692 87.366 30.4938 87.366 34.2075C87.366 37.9212 90.4089 40.9458 94.1437 40.9458C97.8785 40.9458 100.921 37.9212 100.921 34.2075V24.2075C100.921 24.1746 100.895 24.1479 100.862 24.1479H100.356C100.323 24.1479 100.296 24.1746 100.296 24.2075V30.7784ZM33.9158 27.4692C30.181 27.4692 27.1381 30.4938 27.1381 34.2075C27.1381 37.9212 30.181 40.9458 33.9158 40.9458C37.6506 40.9458 40.6935 37.9212 40.6935 34.2075C40.6935 30.4938 37.6506 27.4692 33.9158 27.4692ZM33.9158 40.3238C30.5171 40.3238 27.763 37.5854 27.763 34.2075C27.763 30.8297 30.5171 28.0912 33.9158 28.0912C37.3145 28.0912 40.0686 30.8297 40.0686 34.2075C40.0686 37.5854 37.3145 40.3238 33.9158 40.3238ZM63.6776 40.3238C60.2789 40.3238 57.5248 37.5854 57.5248 34.2075C57.5248 30.8297 60.2789 28.0912 63.6776 28.0912C67.0763 28.0912 69.8304 30.8297 69.8304 34.2075C69.8304 37.5854 67.0763 40.3238 63.6776 40.3238ZM94.1437 40.3238C90.745 40.3238 87.9909 37.5854 87.9909 34.2075C87.9909 30.8297 90.745 28.0912 94.1437 28.0912C97.5424 28.0912 100.296 30.8297 100.296 34.2075C100.296 37.5854 97.5424 40.3238 94.1437 40.3238Z" fill="white" stroke="white" stroke-width="0.11927" stroke-linejoin="round"/>
</svg>
