<svg width="160" height="70" viewBox="0 0 160 70" fill="none" xmlns="http://www.w3.org/2000/svg">
<g clip-path="url(#clip0_139_4119)">
<path fill-rule="evenodd" clip-rule="evenodd" d="M43.5663 54.6198V56.8107H36.6467L36.5844 43.728H38.9532L38.8909 54.6198H43.5663Z" fill="black"/>
<path fill-rule="evenodd" clip-rule="evenodd" d="M47.7441 56.7499H45.4375V50.3651L41.6349 43.6672H44.1908L46.435 47.736L48.5545 43.6672H51.235L47.7441 50.4277V56.7499Z" fill="black"/>
<path fill-rule="evenodd" clip-rule="evenodd" d="M58.9065 54.5588V56.7496H51.9869L51.9246 43.667H54.2934L54.2311 54.5588H58.9065Z" fill="black"/>
<path fill-rule="evenodd" clip-rule="evenodd" d="M62.1483 46.0458V49.0504H66.138L66.2003 51.3665H62.1483V54.5589H68.1328V56.8124H59.7794L59.8418 43.7297H66.699V46.0458H62.1483Z" fill="black"/>
<path fill-rule="evenodd" clip-rule="evenodd" d="M84.2726 46.0451C83.7115 46.0451 83.3998 46.1703 83.1505 46.4207C82.9011 46.6711 82.8388 46.9841 82.9011 47.4222C82.9011 47.61 83.0258 47.7978 83.2128 48.0482C83.3998 48.2986 83.8986 48.7368 84.8336 49.4879C85.7687 50.1765 86.4544 50.865 86.8908 51.491C87.2648 52.0544 87.5142 52.6803 87.5765 53.3063C87.7012 54.2453 87.4518 55.1216 86.8908 55.8102C86.2674 56.5613 85.3947 56.8743 84.2726 56.8743H80.9686L80.9063 54.5582H84.1479C84.4596 54.5582 84.709 54.433 85.0206 54.2453C85.27 54.0575 85.3323 53.8071 85.27 53.4941C85.27 53.3063 85.1453 53.0559 84.9583 52.7429C84.7713 52.4926 84.2726 51.9918 83.2752 51.3032C82.3401 50.5521 81.6544 49.9261 81.218 49.3001C80.844 48.7368 80.6569 48.1108 80.5323 47.5474C80.4076 46.4833 80.7193 45.6069 81.405 44.9184C82.1531 44.2298 83.0258 43.8542 84.1479 43.8542H86.7038V46.1703L84.2726 46.0451Z" fill="black"/>
<path fill-rule="evenodd" clip-rule="evenodd" d="M113.883 46.359V56.8126H111.452V46.359H108.896V44.043H116.501V46.359H113.883Z" fill="black"/>
<path fill-rule="evenodd" clip-rule="evenodd" d="M122.298 46.359V56.8126H119.866V46.359H117.311V44.043H124.916V46.359H122.298Z" fill="black"/>
<path fill-rule="evenodd" clip-rule="evenodd" d="M96.2415 46.232C94.3714 46.1068 92.9999 46.6076 92.1272 47.5465C91.2544 48.4854 90.8804 49.7374 91.0051 51.1771C91.0674 52.1786 91.3791 52.9924 91.9402 53.5558C92.4389 54.1191 93.1246 54.4321 93.8727 54.4947C94.2467 54.4947 94.7454 54.4321 95.3064 54.2443C95.8675 53.9939 96.4285 53.7435 96.8649 53.3054L97.613 52.6794L97.4883 55.8092C96.1168 56.5604 94.9948 56.8734 93.8103 56.8108C92.4389 56.7482 91.1921 56.1848 90.257 55.1207C89.2596 54.0565 88.6986 52.742 88.5739 51.1771C88.3869 48.9236 88.9479 47.1083 90.3817 45.7312C91.7532 44.3541 93.748 43.7907 96.1792 43.9159L97.7377 43.9785L97.4883 46.2946L96.2415 46.232Z" fill="black"/>
<path fill-rule="evenodd" clip-rule="evenodd" d="M108.65 49.1756C108.961 51.3039 108.65 53.1818 107.652 54.6215C106.717 56.0612 105.408 56.875 103.725 56.875C102.416 56.875 101.294 56.3742 100.296 55.3101C99.2988 54.3085 98.7378 52.994 98.5508 51.4291C98.3014 49.4886 98.6131 47.7359 99.4858 46.171C100.359 44.6061 101.73 43.7297 103.476 43.7297C104.785 43.7297 105.969 44.2305 106.904 45.232C107.902 46.2962 108.463 47.6107 108.65 49.1756ZM106.281 48.9252C106.156 47.9863 105.844 47.2351 105.408 46.7344C104.972 46.2336 104.411 45.9832 103.787 45.9832C102.79 45.9832 102.042 46.484 101.481 47.6107C100.92 48.7374 100.795 50.052 100.982 51.5543C101.107 52.5558 101.418 53.2444 101.917 53.8078C102.353 54.3085 102.914 54.5589 103.6 54.5589C104.473 54.5589 105.221 54.0581 105.782 52.994C106.281 51.8673 106.53 50.5527 106.281 48.9252Z" fill="black"/>
<path d="M74.0519 56.9373C73.2415 56.9373 72.4934 56.6869 71.87 56.2488C71.1843 55.748 70.7479 54.9968 70.5609 54.0579C70.3739 53.0564 70.4986 51.8044 71.9947 51.0533C71.309 50.6151 70.9349 49.9891 70.7479 49.1754C70.6232 48.299 70.8103 47.5479 71.3713 46.8593C71.9324 46.2333 72.6181 45.8578 73.5532 45.7952C73.6155 45.7952 73.8025 45.7952 73.9895 45.7952C74.3636 45.7952 74.7376 45.7952 74.8623 45.7952H75.0493L75.1116 47.4853H74.8623C74.8623 47.4853 74.7999 47.4853 74.7376 47.4853C74.4882 47.4853 73.9272 47.4853 73.8025 47.4853C73.3661 47.4853 73.0544 47.6731 72.8051 47.986C72.5557 48.299 72.4934 48.612 72.5557 48.9876C72.6181 49.3632 72.8051 49.6135 73.0545 49.8639C73.2415 50.0517 73.6778 50.1769 74.3012 50.1769C74.4882 50.1769 74.6129 50.1769 74.6129 50.1769H74.8623L74.9246 51.9296H74.6753C74.5506 51.9296 74.2389 51.9296 74.0519 51.9922H73.8649C73.3661 51.9922 72.9298 52.2426 72.6181 52.6182C72.3064 52.9938 72.2441 53.4319 72.3064 53.8701C72.3687 54.2457 72.5557 54.5587 72.9298 54.8716C73.2415 55.122 73.6155 55.2472 73.9895 55.2472H74.1142C74.6753 55.2472 75.1116 54.9968 75.4233 54.6213C75.6727 54.3083 75.9844 53.9327 75.9844 52.7434V52.493H78.3532L78.4156 54.3083H77.5428C77.4805 54.8716 77.2311 55.3724 76.8571 55.8106C76.2337 56.4992 75.361 56.9373 74.3012 56.9999C74.2389 56.9373 74.1765 56.9373 74.0519 56.9373Z" fill="black"/>
<path d="M65.2594 62.0632H68.0023V62.6961H65.9451V64.2151H67.94V64.848H65.9451V66.3669H68.0646V66.9998H65.2594V62.0632Z" fill="black"/>
<path d="M70.6803 64.9115L70.1816 64.5951C69.8699 64.4052 69.6205 64.2154 69.4959 64.0255C69.3712 63.8356 69.3088 63.5825 69.3088 63.3293C69.3088 62.9496 69.4335 62.6331 69.6829 62.38C69.9322 62.1268 70.3063 62.0002 70.6803 62.0002C71.0543 62.0002 71.4283 62.1268 71.8024 62.3167V63.1395C71.4283 62.823 71.0543 62.6331 70.6803 62.6331C70.4309 62.6331 70.2439 62.6964 70.1192 62.823C69.9946 62.9496 69.9322 63.0762 69.9322 63.2027C69.9322 63.3293 69.9946 63.5192 70.1192 63.5825C70.2439 63.7091 70.3686 63.8356 70.6179 63.9622L71.1167 64.2787C71.6777 64.6584 71.9894 65.1014 71.9894 65.671C71.9894 66.0508 71.8647 66.3672 71.6154 66.6204C71.366 66.8735 70.992 67.0001 70.6179 67.0001C70.1192 67.0001 69.6829 66.8735 69.3088 66.5571V65.671C69.6829 66.1773 70.1192 66.3672 70.6179 66.3672C70.805 66.3672 70.992 66.3039 71.179 66.1773C71.3037 66.0508 71.366 65.9242 71.366 65.7343C71.366 65.4812 71.1167 65.1647 70.6803 64.9115Z" fill="black"/>
<path d="M73.0491 62.0632H77.1011V62.6961H75.4179V66.9998H74.7322V62.6961H73.0491V62.0632Z" fill="black"/>
<path d="M81.594 62.0632H82.2797V66.9365H81.594V62.0632Z" fill="black"/>
<path d="M84.769 63.3923C84.769 63.0126 84.8936 62.6961 85.2053 62.443C85.517 62.1898 85.8287 62.0632 86.2651 62.0632C86.6391 62.0632 87.0132 62.1898 87.2625 62.443C87.5119 62.6961 87.6989 63.0126 87.6989 63.3923C87.6989 63.8353 87.5119 64.2151 87.0755 64.4682C87.5119 64.7214 87.7612 65.1011 87.7612 65.6074C87.7612 65.9872 87.6365 66.3669 87.3248 66.6201C87.0132 66.8732 86.7015 66.9998 86.2028 66.9998C85.7664 66.9998 85.3924 66.8732 85.0807 66.6201C84.769 66.3669 84.6443 65.9872 84.6443 65.6074C84.6443 65.1011 84.8936 64.7214 85.33 64.4682C85.143 64.2784 84.956 64.1518 84.8936 63.9619C84.8313 63.772 84.769 63.5822 84.769 63.3923ZM87.0132 65.6074V65.5441C87.0132 65.291 86.9508 65.1644 86.7638 64.9745C86.5768 64.848 86.3898 64.7847 86.1404 64.7847C85.8911 64.7847 85.704 64.848 85.517 64.9745C85.3924 65.1011 85.2677 65.291 85.2677 65.5441C85.2677 65.7973 85.33 65.9239 85.517 66.1138C85.704 66.2403 85.8911 66.3036 86.1404 66.3036C86.3898 66.3036 86.5768 66.2403 86.7638 66.1138C86.9508 65.9872 87.0132 65.8606 87.0132 65.6074ZM86.9508 63.3923C86.9508 63.2024 86.8885 63.0126 86.7638 62.886C86.6391 62.7594 86.4521 62.6961 86.2028 62.6961C85.9534 62.6961 85.7664 62.7594 85.6417 62.886C85.517 63.0126 85.4547 63.2024 85.4547 63.3923C85.4547 63.5822 85.517 63.772 85.704 63.8986C85.8287 64.0252 86.0157 64.0885 86.2651 64.0885C86.4521 64.0885 86.6391 64.0252 86.8261 63.8986C86.8885 63.772 86.9508 63.5822 86.9508 63.3923Z" fill="black"/>
<path d="M89.0127 62.0632H92.1296L89.9478 66.9998L89.3244 66.7466L91.0699 62.7594H89.0127V62.0632Z" fill="black"/>
<path d="M95.4314 62.0002H95.7431V64.7217H96.3042V65.2913H95.7431V66.9368H95.0574V65.2913H93.0002V64.9748L95.4314 62.0002ZM94.9951 64.7217V63.3293L93.873 64.7217H94.9951Z" fill="black"/>
<path d="M61.9561 63.9631H36.5844V64.7859H61.9561V63.9631Z" fill="black"/>
<path d="M124.853 63.9631H99.4817V64.7859H124.853V63.9631Z" fill="black"/>
<path d="M82.4687 35.9818C83.4083 35.4358 84.9007 34.7807 86.4483 34.5078C87.7196 34.2894 89.9858 33.2522 90.9807 32.4333C92.5836 31.1777 92.9705 30.7955 93.7995 29.9221C94.4628 29.2124 95.3472 28.1205 96.0104 26.9741C97.3922 24.5175 97.0606 23.4256 96.9501 23.4802C94.3523 24.4083 94.0206 24.5175 92.2519 25.0634C91.3123 25.3363 90.5385 25.6093 89.433 25.8823C89.3225 25.8823 89.2119 25.5001 88.9356 25.0634C88.5487 24.5721 88.2723 24.4083 88.2723 24.4083C88.2723 24.4083 89.8752 22.6613 90.3727 21.8425C91.1465 20.7506 92.8599 18.2394 92.8599 18.2394C92.8599 18.2394 95.4577 16.6562 97.2264 14.418C98.8846 12.3981 99.2162 11.6338 99.769 9.28632C100.156 7.48479 99.769 5.4103 98.8293 3.99091C98.0555 2.78989 97.5581 2.29856 96.0104 1.31591C95.0155 0.715396 93.9654 0.333252 93.9654 0.333252C93.4679 1.15213 92.2519 3.22662 91.4781 4.15468C90.4279 5.4103 89.5988 6.0654 88.7145 6.82969C88.1065 7.37561 86.6694 8.46744 85.564 9.23173C84.7902 9.77765 83.2425 10.7057 83.0214 10.8695C82.1371 11.4154 80.9764 11.9613 80.9764 11.9613C80.9764 11.9613 80.5895 13.5991 80.3131 14.4726C79.7604 16.2195 78.9313 17.6935 78.9313 17.6935C78.9313 17.6935 78.5444 15.2914 77.7153 13.8175C76.8309 12.2343 75.6702 11.3608 75.6149 11.0333C75.007 7.64857 74.1226 7.10265 73.3488 6.22918C72.4644 5.24652 71.3037 4.31846 69.8666 3.71795C68.319 3.06285 66.2186 2.46234 63.6761 3.00826C61.9074 3.3904 59.9176 4.15468 59.9176 4.15468C59.9176 4.15468 60.9125 5.30112 61.631 6.28377C62.847 8.03071 63.7867 9.4501 64.2288 10.6511C64.7263 11.9067 65.3343 13.5991 65.6107 14.6363C65.887 15.7282 66.1081 17.3113 66.1081 17.3113C66.1081 17.3113 67.711 18.021 68.4295 18.6761C68.9823 19.1675 69.6455 19.768 70.0877 20.8598C70.0877 20.9144 68.6506 21.4603 67.6557 22.17C66.3292 23.0981 65.7765 23.6986 65.5554 24.6812C65.5554 24.6812 63.9525 25.9914 64.063 27.4108C64.1183 28.0113 64.5605 28.6119 64.7816 28.8302C65.1132 29.2124 65.887 29.7037 66.7714 29.4853C67.711 29.267 68.8717 28.0113 70.6957 28.6664C71.5248 28.9394 71.967 30.0312 72.3539 30.7409C72.7408 31.4506 73.1277 31.8874 73.2935 32.4879C73.5146 33.1976 73.1277 33.7981 72.7408 34.2348C72.2986 34.6716 70.9721 35.3267 70.5852 36.5277C70.2535 37.4557 70.5299 38.6022 71.5248 39.1481C72.4644 39.6394 73.791 39.3119 73.791 39.3119C73.791 39.3119 74.9517 40.5675 76.5546 40.2945C77.9917 40.0216 79.5946 38.6022 79.9262 38.22C80.7553 37.1828 81.7502 36.4185 82.4687 35.9818Z" fill="#101010"/>
<path d="M93.3016 11.0351C100.045 7.75963 98.4419 5.73973 98.4419 5.73973C94.6281 9.56117 92.4725 9.88872 92.4725 9.88872C98.9393 5.57596 96.7285 3.66524 96.7285 3.66524C95.1256 6.55861 91.367 8.90606 91.367 8.90606C96.7837 3.50146 94.6281 2.24585 94.6281 2.24585C91.8645 7.70504 82.3576 12.8913 82.3576 12.8913C81.0311 20.3704 75.5039 23.7005 75.5039 23.7005L76.3882 22.3903C76.2224 22.3903 74.3432 22.3357 74.3432 22.3357L74.509 21.8443C73.6799 21.8443 70.9715 22.3357 70.9715 22.3357L71.0268 21.7897C69.3134 22.4449 67.7657 23.6459 67.0472 24.3556C66.3287 25.0653 66.8261 25.229 66.8261 25.229C66.2734 25.6112 65.5549 26.3755 65.5549 26.3755C64.9469 27.3035 65.5549 27.7949 65.9418 28.1224C66.3839 28.5046 66.2181 28.0678 66.2181 28.0678C65.7207 27.4127 66.4392 27.0306 66.4392 27.0306C67.213 26.8122 67.5447 26.4847 67.5447 26.4847V26.8668C67.4341 26.976 67.3788 27.0306 67.3236 27.1398C67.1578 27.3035 66.9919 27.5219 66.8261 27.7403C66.7708 27.7949 66.7156 27.904 66.6603 27.9586L66.7156 28.0132C66.7708 28.0132 66.8814 27.9586 66.9367 27.9586C67.1025 27.904 67.2683 27.8495 67.4341 27.7403C67.7105 27.5765 68.0421 27.4673 68.3185 27.2489C69.2028 27.0306 70.4741 27.0852 70.4741 27.0852C72.0217 27.0852 73.0719 28.9413 73.0719 28.9413C74.509 32.326 77.2173 32.6535 77.2173 32.6535C77.162 32.4352 76.7199 31.7255 76.7199 31.7255C80.202 34.7826 75.5039 36.5842 75.5039 36.5842C74.8406 37.6214 74.7853 38.3311 74.7853 38.3311C75.0064 39.2046 76.4988 38.9316 76.4988 38.9316C75.2828 38.4949 76.1671 37.403 76.1671 37.403C76.0013 39.2046 77.9359 38.0581 77.9359 38.0581C76.333 38.2765 77.3279 36.8571 77.3279 36.8571C77.162 38.3857 78.986 37.0209 78.986 37.0209C77.2726 37.1847 78.4886 36.0928 78.4886 36.0928C78.986 35.6015 81.2522 34.9464 81.2522 34.9464C80.6995 34.8372 80.202 34.4551 80.202 34.4551C81.3075 34.2913 83.0209 33.8 83.0209 33.8C81.9155 33.4178 81.4733 32.9265 81.4733 32.9265C82.4682 32.9265 83.6289 32.3806 83.6289 32.3806C86.282 33.5816 87.3874 32.5444 87.3874 32.5444C86.7794 32.5444 84.7344 31.6163 84.7344 31.6163C88.2165 33.0903 89.6536 31.5617 89.6536 31.5617C88.3823 31.5617 85.8951 31.0158 85.8951 31.0158C89.93 31.7255 91.5329 30.0877 91.5329 30.0877C89.2667 30.0877 86.5583 30.1423 86.5583 30.1423C92.583 29.9239 93.4674 28.0132 93.4674 28.0132C91.367 28.5591 86.8347 29.2142 86.8347 29.2142C94.6281 27.8494 95.1808 25.2836 95.1808 25.2836C90.538 27.5219 84.5685 28.5046 84.5685 28.5046L82.6893 28.177C77.9359 29.5964 77.2726 27.6311 77.2726 27.6311C82.9656 31.5617 90.9801 18.0229 90.9801 18.0229C88.6587 18.7872 88.1612 18.5688 88.1612 18.5688C93.9648 16.6035 94.1307 15.5117 94.1307 15.5117C91.3118 16.276 90.7038 16.0576 90.7038 16.0576C95.2361 15.2933 96.0652 13.4372 96.0652 13.4372C92.9147 14.529 91.5881 14.3107 91.5881 14.3107C97.9444 12.8913 97.447 11.2535 97.447 11.2535C94.5176 12.5637 92.7488 12.6183 92.7488 12.6183C99.271 10.5984 98.3314 8.68769 98.3314 8.68769C95.7888 10.653 93.3016 11.0351 93.3016 11.0351ZM67.9316 25.8841C67.8763 25.8841 67.7657 25.9387 67.7105 25.9387C67.5999 25.9387 67.4341 25.9933 67.3236 25.9933C67.1578 26.0479 66.9919 26.0479 66.8261 26.1025C66.7156 26.1025 66.6603 26.1571 66.5498 26.1571C66.5498 26.1571 66.4945 26.2117 66.4945 26.1571V26.1025C66.5498 26.0479 66.605 25.9933 66.6603 25.9387C66.7156 25.8841 66.8261 25.775 66.8814 25.7204C66.9367 25.6658 67.0472 25.6112 67.1025 25.5566C67.1025 25.5566 67.213 25.502 67.213 25.4474C67.213 25.4474 67.213 25.6658 67.821 25.775C67.821 25.8296 67.8763 25.8296 67.9316 25.8841C67.9316 25.8296 67.9316 25.8296 67.9316 25.8841C67.9868 25.8296 67.9868 25.8296 67.9316 25.8841ZM67.9316 25.229C67.6552 25.229 67.4341 24.9561 67.4341 24.9561L68.3737 24.4102L67.9316 25.229ZM71.8006 25.2836L71.469 25.5566L70.0319 25.1744L71.8006 25.2836ZM73.0719 24.301L72.5744 24.7377L70.0319 24.3556L73.0719 24.301ZM74.1221 23.0454L73.5141 23.5367L70.253 23.4275L74.1221 23.0454ZM78.3228 26.2117C76.1671 26.4847 75.4486 25.9387 75.4486 25.9387C79.7046 25.9933 83.0209 24.9561 83.0762 24.9561L78.3228 26.2117ZM83.0762 24.9561C81.0311 25.7204 79.4835 26.1025 78.3228 26.2117L83.0762 24.9561ZM85.4529 22.0627C78.986 25.775 76.4988 24.8469 76.4988 24.8469C81.6944 23.9188 85.3976 22.0627 85.4529 22.0627C85.4529 22.0081 85.4529 22.0081 85.4529 22.0627Z" fill="#FFD100"/>
<path d="M73.9578 36.0928C73.7919 37.4576 75.4501 36.2566 75.4501 36.2566C75.3396 36.3112 74.8421 36.3112 74.7316 36.202C74.5658 36.0928 74.621 36.0383 74.621 35.8745C74.621 35.4923 74.8421 35.2194 75.1738 35.0556C75.7818 34.6735 76.7767 34.2913 77.5505 34.3459C77.7716 33.6908 77.5505 33.4724 77.3846 33.0903C76.2792 33.0357 75.6159 32.599 74.6763 31.6709C75.0079 32.1622 74.9527 32.7627 74.7869 33.2541C74.621 33.6908 74.3447 34.2913 74.013 34.6189C73.6814 35.001 73.2945 35.274 72.8523 35.4923C72.7418 35.5469 72.2996 35.6561 72.2443 35.7653C71.6916 36.6934 71.5811 37.3485 71.5811 37.3485C71.8021 38.1127 73.1287 37.8944 73.1287 37.8944C72.0232 37.4576 72.8523 36.5296 72.8523 36.5296C72.7418 38.1673 74.4552 37.1301 74.4552 37.1301C73.0181 37.3485 73.9578 36.0928 73.9578 36.0928Z" fill="#FFD100"/>
<path d="M72.1876 21.8425C72.1876 21.8425 74.896 21.3512 76.0567 21.3512C76.0567 21.3512 75.4487 20.696 73.2378 20.2593C73.2378 20.2593 74.0669 19.8772 75.3382 19.8772C75.3382 19.8772 74.7854 19.3858 72.7404 18.8945C72.7404 18.8945 73.5695 18.567 74.5091 18.567C74.5091 18.567 73.5695 18.021 72.0771 17.7481C72.0771 17.7481 72.8509 17.4751 73.7905 17.4751C73.7905 17.4751 72.6851 16.9292 71.4138 16.7654C71.4138 16.7654 72.2429 16.4925 73.0167 16.4379C73.0167 16.4379 71.6349 15.7828 70.64 15.8374C70.64 15.8374 71.6902 15.5644 71.9666 15.5098C71.9666 15.5098 70.5295 14.9639 69.8109 14.9639C69.8109 14.9639 70.6953 14.7455 70.9164 14.7455C70.9164 14.7455 69.9767 14.418 69.3135 14.3088C69.3135 14.3088 72.8509 12.7802 76.5542 22.0063C76.5542 22.0063 79.6494 16.9292 74.5644 12.0159L74.0116 12.7802C74.0116 12.7802 74.6196 9.45011 72.2982 7.15725C72.2982 7.15725 72.9615 9.99603 72.6298 10.5965C72.6298 10.5965 72.2429 6.44756 70.4742 5.35572C70.4742 5.35572 71.1927 7.64858 70.9717 8.52205C70.9717 8.52205 70.3084 5.02817 68.6502 4.42766C68.6502 4.42766 69.6451 6.66593 69.3688 7.64858C69.3688 7.64858 68.4844 4.10011 66.7157 3.99092C66.7157 3.99092 67.9317 6.55674 67.7659 7.15725C67.7659 7.15725 66.4946 3.99092 64.4495 3.82715C64.4495 3.82715 66.2182 6.77511 66.1077 7.21185C66.1077 7.21185 63.8415 3.60878 62.1833 4.48225C62.1833 4.48225 65.8313 7.70317 67.4895 16.0011C67.5448 16.1103 70.9716 17.5297 72.1876 21.8425Z" fill="#FFD100"/>
<path d="M86.3354 26.046C86.3354 26.5919 86.7776 26.974 87.3303 26.974C87.8278 26.974 88.27 26.5373 88.27 26.046C88.27 25.5001 87.8278 25.1179 87.3303 25.1179C86.7776 25.1179 86.3354 25.5001 86.3354 26.046ZM88.1042 26.046C88.1042 26.5373 87.7725 26.8649 87.3303 26.8649C86.8882 26.8649 86.5565 26.5373 86.5565 26.046C86.5565 25.6092 86.8882 25.2271 87.3303 25.2271C87.7725 25.2271 88.1042 25.6092 88.1042 26.046Z" fill="#FFD100"/>
<path d="M86.9409 26.5932H87.1067V26.1019H87.2725L87.6042 26.5932H87.77L87.4383 26.1019C87.6042 26.1019 87.7147 25.9927 87.7147 25.7743C87.7147 25.556 87.6042 25.4468 87.3278 25.4468H86.8856V26.5932H86.9409ZM87.1067 25.6106H87.3278C87.4383 25.6106 87.5489 25.6106 87.5489 25.7743C87.5489 25.9381 87.3831 25.9381 87.2725 25.9381H87.1067V25.6106V25.6106Z" fill="#FFD100"/>
</g>
<defs>
<clipPath id="clip0_139_4119">
<rect width="160" height="70" fill="white"/>
</clipPath>
</defs>
</svg>
