<svg width="160" height="70" viewBox="0 0 160 70" fill="none" xmlns="http://www.w3.org/2000/svg">
<g clip-path="url(#clip0_141_5046)">
<path fill-rule="evenodd" clip-rule="evenodd" d="M15.6948 15.4282H42.3731V52.9871H15.6948V15.4282ZM19.5401 49.2061H38.5146V19.2107H19.5401V49.2061V49.2061Z" fill="#F7D730"/>
<path fill-rule="evenodd" clip-rule="evenodd" d="M60.094 32.2796H58.4438C56.2761 29.2711 54.1262 26.2814 51.9793 22.9026H51.9637V32.2796H50.1396V19.2052H51.7912C53.9589 22.1927 56.1058 25.1612 58.2328 28.5226H58.2705V19.2052H60.0947V32.2796H60.094ZM64.43 27.1049C64.9594 25.386 65.4924 23.7988 65.9684 21.781H66.0069C66.5385 23.7988 67.0145 25.3867 67.5083 27.1049H64.43V27.1049ZM65.3021 19.2052L60.7047 32.2796H62.6814L63.8378 28.711H67.8511L68.8957 32.2796H71.4446L67.204 19.2052H65.3021V19.2052ZM73.5908 32.2796V20.959H70.092V19.2052H79.3675V20.959H75.8717V32.2796H73.5908ZM80.1071 19.2052H82.3725V32.2796H80.1071V19.2052ZM89.4056 30.6335C87.0269 30.6335 86.1911 28.0563 86.1911 25.5533C86.1911 23.1449 87.1409 20.847 89.4056 20.847C91.6673 20.847 92.6141 23.1449 92.6141 25.5533C92.6141 28.0563 91.7798 30.6335 89.4056 30.6335ZM89.4056 32.5008C92.8829 32.5008 95.0491 29.458 95.0491 25.5526C95.0491 21.893 92.6578 18.9797 89.4056 18.9797C86.1563 18.9797 83.7547 21.893 83.7547 25.5526C83.7554 29.4588 85.9253 32.5008 89.4056 32.5008ZM106.397 32.2796H104.744C102.575 29.2711 100.427 26.2814 98.2813 22.9026H98.2628V32.2796H96.4409V19.2052H98.0933C100.258 22.1927 102.406 25.1612 104.532 28.5226H104.571V19.2052H106.397V32.2796H106.397ZM110.731 27.1049C111.264 25.386 111.794 23.7988 112.272 21.781H112.31C112.842 23.7988 113.316 25.3867 113.809 27.1049H110.731ZM111.607 19.2052L107.008 32.2796H108.986L110.142 28.711H114.155L115.2 32.2796H117.746L113.506 19.2052H111.607ZM118.409 19.2052H120.675V30.5229H125.177V32.2796H118.409V19.2052ZM58.6918 43.2155V48.6114C57.474 49.0805 56.1999 49.4144 54.911 49.4144C50.9939 49.4144 48.5234 46.4262 48.5234 42.5783C48.5234 39.0096 50.9939 35.8919 54.9857 35.8919C56.2191 35.8919 57.4554 36.3422 58.2165 36.9016L57.4747 38.4517C56.8676 38.0814 55.9148 37.7636 55.042 37.7636C52.6108 37.7636 50.9554 39.6504 50.9554 42.6204C50.9554 45.7185 52.8573 47.5472 54.8154 47.5472C55.421 47.5472 55.937 47.4759 56.4145 47.2307V43.2155H58.6918V43.2155ZM66.8501 37.8756H63.0441V41.4595H66.7695V43.2155H63.0441V47.4337H67.5298V49.1918H60.7617V36.1167H66.8501V37.8756ZM73.8825 47.5464C71.5038 47.5464 70.6665 44.9714 70.6665 42.467C70.6665 40.06 71.6171 37.7628 73.8825 37.7628C76.1427 37.7628 77.091 40.06 77.091 42.467C77.091 44.9714 76.253 47.5464 73.8825 47.5464ZM73.8825 49.4144C77.359 49.4144 79.5245 46.3702 79.5245 42.4662C79.5245 38.8067 77.131 35.8912 73.8825 35.8912C70.628 35.8912 68.236 38.8067 68.236 42.4662C68.2353 46.371 70.3985 49.4144 73.8825 49.4144V49.4144ZM90.4717 43.2155V48.6114C89.2538 49.0805 87.9834 49.4144 86.6893 49.4144C82.7753 49.4144 80.3026 46.4262 80.3026 42.5783C80.3026 39.0096 82.7752 35.8919 86.7671 35.8919C88.0034 35.8919 89.2368 36.3422 89.9956 36.9016L89.2538 38.4517C88.6453 38.0814 87.7006 37.7636 86.8248 37.7636C84.3884 37.7636 82.7345 39.6504 82.7345 42.6204C82.7345 45.7185 84.6372 47.5472 86.5953 47.5472C87.2053 47.5472 87.7162 47.4759 88.1929 47.2307V43.2155H90.4717V43.2155ZM94.8484 37.8756H95.8531C97.199 37.8756 97.9615 38.6379 97.9615 39.9843C97.9615 41.7381 96.8799 42.5215 95.7953 42.5775C95.5666 42.6001 95.0335 42.619 94.8484 42.635V37.8756V37.8756ZM100.625 49.1918L97.94 43.7777C99.4037 43.014 100.245 41.4595 100.245 39.8905C100.245 37.3482 98.6641 36.1167 96.1166 36.1167H92.5623V49.1918H94.8484V44.2615H95.8738L98.0178 49.1918H100.625V49.1918ZM104.388 44.0178C104.918 42.2968 105.451 40.711 105.927 38.6939H105.965C106.497 40.711 106.971 42.2968 107.466 44.0178H104.388ZM105.26 36.1167L100.659 49.1918H102.636L103.797 45.6232H107.809L108.849 49.1918H111.401L107.159 36.1167H105.26V36.1167ZM115.676 36.1167H112.122V49.1918H114.403V44.2615H115.427C118.147 44.2615 119.803 42.0945 119.803 39.8905C119.803 37.3475 118.223 36.1167 115.676 36.1167ZM115.356 42.5783C115.119 42.5994 114.563 42.6168 114.403 42.6321V37.8756H115.427C116.758 37.8756 117.521 38.6379 117.521 39.9843C117.521 41.7381 116.441 42.5222 115.356 42.5783ZM130.369 49.1918H128.089V42.8998H123.352V49.1918H121.097V36.1167H123.352V41.1409H128.089V36.1538H130.369V49.1918ZM132.553 36.1167H134.82V49.1918H132.553V36.1167ZM145.08 38.4902C144.528 38.1534 143.619 37.7628 142.741 37.7628C140.418 37.7628 138.733 39.6497 138.733 42.6197C138.733 45.7177 140.594 47.5464 142.8 47.5464C143.607 47.5427 144.398 47.3158 145.08 46.8918L145.709 48.5183C145.021 48.9845 143.808 49.4144 142.707 49.4144C138.79 49.4144 136.318 46.4262 136.318 42.5783C136.318 39.0096 138.769 35.8919 142.741 35.8919C143.922 35.8919 145.021 36.3808 145.805 36.9016L145.08 38.4902V38.4902Z" fill="white"/>
</g>
<defs>
<clipPath id="clip0_141_5046">
<rect width="130.144" height="37.5768" fill="white" transform="translate(15.6777 15.4192)"/>
</clipPath>
</defs>
</svg>
