<svg width="160" height="70" viewBox="0 0 160 70" fill="none" xmlns="http://www.w3.org/2000/svg">
<g clip-path="url(#clip0_139_4113)">
<path fill-rule="evenodd" clip-rule="evenodd" d="M15.6949 15.4282H42.3733V52.9871H15.6949V15.4282ZM19.5402 49.2061H38.5147V19.2107H19.5402V49.2061V49.2061Z" fill="#F7D730"/>
<path fill-rule="evenodd" clip-rule="evenodd" d="M60.0942 32.2796H58.444C56.2764 29.2711 54.1265 26.2814 51.9795 22.9026H51.964V32.2796H50.1398V19.2052H51.7915C53.9591 22.1927 56.1061 25.1612 58.233 28.5226H58.2708V19.2052H60.0949V32.2796H60.0942ZM64.4303 27.1049C64.9596 25.386 65.4926 23.7988 65.9687 21.781H66.0072C66.5387 23.7988 67.0147 25.3867 67.5085 27.1049H64.4303V27.1049ZM65.3024 19.2052L60.705 32.2796H62.6816L63.838 28.711H67.8513L68.8959 32.2796H71.4448L67.2043 19.2052H65.3024V19.2052ZM73.591 32.2796V20.959H70.0923V19.2052H79.3678V20.959H75.872V32.2796H73.591ZM80.1074 19.2052H82.3728V32.2796H80.1074V19.2052ZM89.4058 30.6335C87.0272 30.6335 86.1913 28.0563 86.1913 25.5533C86.1913 23.1449 87.1412 20.847 89.4058 20.847C91.6675 20.847 92.6144 23.1449 92.6144 25.5533C92.6144 28.0563 91.78 30.6335 89.4058 30.6335ZM89.4058 32.5008C92.8831 32.5008 95.0493 29.458 95.0493 25.5526C95.0493 21.893 92.6581 18.9797 89.4058 18.9797C86.1566 18.9797 83.7549 21.893 83.7549 25.5526C83.7557 29.4588 85.9256 32.5008 89.4058 32.5008ZM106.397 32.2796H104.745C102.575 29.2711 100.427 26.2814 98.2816 22.9026H98.2631V32.2796H96.4411V19.2052H98.0935C100.258 22.1927 102.407 25.1612 104.532 28.5226H104.571V19.2052H106.398V32.2796H106.397ZM110.731 27.1049C111.265 25.386 111.794 23.7988 112.272 21.781H112.31C112.842 23.7988 113.316 25.3867 113.809 27.1049H110.731ZM111.607 19.2052L107.008 32.2796H108.986L110.142 28.711H114.155L115.2 32.2796H117.746L113.506 19.2052H111.607ZM118.409 19.2052H120.675V30.5229H125.178V32.2796H118.409V19.2052ZM58.692 43.2155V48.6114C57.4742 49.0805 56.2001 49.4144 54.9112 49.4144C50.9941 49.4144 48.5237 46.4262 48.5237 42.5783C48.5237 39.0096 50.9941 35.8919 54.986 35.8919C56.2193 35.8919 57.4557 36.3422 58.2167 36.9016L57.4749 38.4517C56.8679 38.0814 55.9151 37.7636 55.0422 37.7636C52.611 37.7636 50.9556 39.6504 50.9556 42.6204C50.9556 45.7185 52.8575 47.5472 54.8157 47.5472C55.4213 47.5472 55.9373 47.4759 56.4148 47.2307V43.2155H58.692V43.2155ZM66.8504 37.8756H63.0444V41.4595H66.7697V43.2155H63.0444V47.4337H67.53V49.1918H60.762V36.1167H66.8504V37.8756ZM73.8827 47.5464C71.5041 47.5464 70.6668 44.9714 70.6668 42.467C70.6668 40.06 71.6173 37.7628 73.8827 37.7628C76.1429 37.7628 77.0913 40.06 77.0913 42.467C77.0913 44.9714 76.2532 47.5464 73.8827 47.5464ZM73.8827 49.4144C77.3593 49.4144 79.5247 46.3702 79.5247 42.4662C79.5247 38.8067 77.1313 35.8912 73.8827 35.8912C70.6283 35.8912 68.2363 38.8067 68.2363 42.4662C68.2355 46.371 70.3988 49.4144 73.8827 49.4144V49.4144ZM90.4719 43.2155V48.6114C89.2541 49.0805 87.9837 49.4144 86.6896 49.4144C82.7755 49.4144 80.3028 46.4262 80.3028 42.5783C80.3028 39.0096 82.7755 35.8919 86.7673 35.8919C88.0037 35.8919 89.237 36.3422 89.9959 36.9016L89.2541 38.4517C88.6455 38.0814 87.7009 37.7636 86.8251 37.7636C84.3887 37.7636 82.7348 39.6504 82.7348 42.6204C82.7348 45.7185 84.6374 47.5472 86.5956 47.5472C87.2056 47.5472 87.7164 47.4759 88.1932 47.2307V43.2155H90.4719V43.2155ZM94.8487 37.8756H95.8533C97.1992 37.8756 97.9618 38.6379 97.9618 39.9843C97.9618 41.7381 96.8801 42.5215 95.7956 42.5775C95.5668 42.6001 95.0338 42.619 94.8487 42.635V37.8756V37.8756ZM100.625 49.1918L97.9403 43.7777C99.4039 43.014 100.245 41.4595 100.245 39.8905C100.245 37.3482 98.6643 36.1167 96.1169 36.1167H92.5626V49.1918H94.8487V44.2615H95.874L98.018 49.1918H100.625V49.1918ZM104.388 44.0178C104.919 42.2968 105.451 40.711 105.928 38.6939H105.965C106.498 40.711 106.971 42.2968 107.466 44.0178H104.388ZM105.261 36.1167L100.659 49.1918H102.636L103.797 45.6232H107.81L108.849 49.1918H111.401L107.16 36.1167H105.261V36.1167ZM115.676 36.1167H112.122V49.1918H114.404V44.2615H115.427C118.147 44.2615 119.803 42.0945 119.803 39.8905C119.803 37.3475 118.224 36.1167 115.676 36.1167ZM115.356 42.5783C115.119 42.5994 114.563 42.6168 114.404 42.6321V37.8756H115.427C116.758 37.8756 117.521 38.6379 117.521 39.9843C117.521 41.7381 116.441 42.5222 115.356 42.5783ZM130.369 49.1918H128.089V42.8998H123.353V49.1918H121.097V36.1167H123.353V41.1409H128.089V36.1538H130.369V49.1918ZM132.553 36.1167H134.82V49.1918H132.553V36.1167ZM145.08 38.4902C144.528 38.1534 143.62 37.7628 142.741 37.7628C140.419 37.7628 138.733 39.6497 138.733 42.6197C138.733 45.7177 140.594 47.5464 142.8 47.5464C143.608 47.5427 144.398 47.3158 145.08 46.8918L145.71 48.5183C145.021 48.9845 143.809 49.4144 142.708 49.4144C138.791 49.4144 136.318 46.4262 136.318 42.5783C136.318 39.0096 138.769 35.8919 142.741 35.8919C143.923 35.8919 145.021 36.3808 145.805 36.9016L145.08 38.4902V38.4902Z" fill="#101010"/>
</g>
<defs>
<clipPath id="clip0_139_4113">
<rect width="130.144" height="37.5768" fill="white" transform="translate(15.678 15.4192)"/>
</clipPath>
</defs>
</svg>
