<svg width="160" height="70" viewBox="0 0 160 70" fill="none" xmlns="http://www.w3.org/2000/svg">
<g clip-path="url(#clip0_141_5053)">
<path fill-rule="evenodd" clip-rule="evenodd" d="M27.8688 32.8149H38.292C39.0124 32.8149 39.6373 32.2117 39.7042 31.4718C39.7739 30.6991 39.2088 30.0784 38.4564 30.0784H25.9794C26.5075 28.4938 27.0356 26.9104 27.5637 25.3267C27.6994 24.9209 28.0801 24.6311 28.4995 24.6311H39.4848C43.2236 24.6311 46.0328 27.8032 45.6869 31.6423C45.3552 35.3192 42.2471 38.2405 38.6677 38.2417C36.3808 38.2436 34.0937 38.2436 31.8059 38.2447C31.1671 38.2447 30.6181 38.6577 30.4238 39.2425C30.008 40.489 29.5927 41.7364 29.1762 42.9818C29.0407 43.3879 28.663 43.6775 28.2435 43.6775H23.1852C22.2895 43.6775 21.7364 42.8 22.0245 41.9368C22.7309 39.8178 23.4385 37.6992 24.144 35.5802C24.685 33.9575 26.1907 32.8149 27.8688 32.8149" fill="white"/>
<path fill-rule="evenodd" clip-rule="evenodd" d="M124.603 43.6775C124.213 42.1751 123.824 40.6718 123.433 39.1685C123.286 38.5979 122.82 38.2424 122.254 38.2424C121.714 38.2436 121.173 38.2436 120.633 38.2436C119.995 38.2445 119.446 38.6567 119.251 39.2423C118.836 40.4889 118.42 41.7354 118.003 42.9809C117.869 43.3877 117.49 43.6775 117.071 43.6775H112.013C111.117 43.6775 110.564 42.7998 110.852 41.9357C111.558 39.8178 112.266 37.699 112.971 35.58C113.513 33.9575 115.018 32.8147 116.696 32.8147H127.119C127.84 32.8147 128.466 32.2105 128.531 31.4716C128.601 30.6989 128.036 30.0782 127.285 30.0782H114.807C115.335 28.4927 115.863 26.9092 116.392 25.3267C116.526 24.9209 116.907 24.6311 117.328 24.6311H128.311C132.051 24.6311 134.86 27.8032 134.513 31.6423C134.28 34.2338 132.666 36.4514 130.478 37.5335C131.013 39.5732 131.544 41.613 132.077 43.6775H124.603Z" fill="white"/>
<path fill-rule="evenodd" clip-rule="evenodd" d="M78.7242 30.0773C79.1944 28.6654 79.6658 27.2546 80.1371 25.8425C80.3374 25.2424 79.9459 24.6311 79.3229 24.6311H73.7755C73.356 24.6311 72.9753 24.9197 72.8399 25.3256C72.3117 26.9092 71.7836 28.4927 71.2544 30.0773H78.7242Z" fill="white"/>
<path fill-rule="evenodd" clip-rule="evenodd" d="M83.3332 43.6804H68.4577C67.5629 43.6804 67.0098 42.8028 67.2988 41.9386C68.3124 38.8989 69.3267 35.8583 70.34 32.8176H77.8087C77.4619 33.8586 77.1142 34.9017 76.7665 35.9426C76.4795 36.8058 77.0445 37.6833 77.9382 37.6833H84.276C85.1718 37.6833 85.7429 38.5588 85.4548 39.421C85.0592 40.609 84.6627 41.7968 84.267 42.9838C84.1304 43.3906 83.7527 43.6804 83.3332 43.6804" fill="white"/>
<path fill-rule="evenodd" clip-rule="evenodd" d="M100.516 24.9958C99.146 26.6904 97.7769 28.3837 96.4058 30.0773H107.477C107.339 28.5277 107.201 26.978 107.063 25.4274C107.02 24.9599 106.649 24.6311 106.194 24.6311H101.273C100.979 24.6311 100.703 24.7647 100.516 24.9958" fill="white"/>
<path fill-rule="evenodd" clip-rule="evenodd" d="M102.013 43.6804H107.61C108.173 43.6804 108.644 43.1521 108.592 42.5695C108.301 39.3192 108.011 36.0679 107.722 32.8176H94.195C91.8632 35.702 89.5304 38.5867 87.1966 41.4711C86.4872 42.3487 86.9845 43.6804 88.1213 43.6804H92.5668C92.8598 43.6804 93.1387 43.5315 93.324 43.3001C94.5486 41.7866 95.7724 40.2729 96.9971 38.7602C97.266 38.4283 97.6657 38.2454 98.0852 38.2454H99.587C100.24 38.2454 100.775 38.711 100.836 39.3861C100.939 40.5462 101.043 41.7065 101.145 42.8654C101.187 43.3351 101.56 43.6804 102.013 43.6804" fill="white"/>
<path fill-rule="evenodd" clip-rule="evenodd" d="M66.808 32.8176C67.2624 38.8013 62.4972 44.077 56.7247 44.2619C50.624 44.4562 46.2086 38.9677 47.4145 32.8176H66.808Z" fill="#E51D34"/>
<path fill-rule="evenodd" clip-rule="evenodd" d="M66.2032 30.0789C64.7791 26.3055 61.2497 24.047 57.3822 24.1517C53.5637 24.2535 50.0801 26.6045 48.3481 30.0789H66.2032Z" fill="#E51D34"/>
<path fill-rule="evenodd" clip-rule="evenodd" d="M136.771 41.4607V40.5403H137.492C137.799 40.5403 138.121 40.6039 138.121 41.0012C138.121 41.3988 137.799 41.4607 137.492 41.4607H136.771ZM138.452 40.9604C138.427 40.4113 137.997 40.3132 137.56 40.3132H136.46V42.9048H136.769V41.7105H137.335C137.575 42.1089 137.814 42.5072 138.053 42.9048H138.422C138.169 42.5054 137.915 42.1061 137.661 41.7065C138.14 41.6859 138.476 41.5127 138.452 40.9604V40.9604Z" fill="white"/>
<path fill-rule="evenodd" clip-rule="evenodd" d="M137.302 43.6202C136.228 43.6202 135.412 42.6865 135.412 41.6052C135.412 40.522 136.228 39.5871 137.302 39.5871C138.375 39.5871 139.191 40.522 139.191 41.6052C139.191 42.6865 138.375 43.6202 137.302 43.6202M137.301 39.2805C136.056 39.2805 135.047 40.3195 135.047 41.604C135.047 42.886 136.056 43.9256 137.301 43.9256C138.545 43.9256 139.553 42.886 139.553 41.604C139.553 40.3195 138.545 39.2805 137.301 39.2805" fill="white"/>
</g>
<defs>
<clipPath id="clip0_141_5053">
<rect width="117.604" height="20.1188" fill="white" transform="translate(21.9478 24.1482)"/>
</clipPath>
</defs>
</svg>
