<svg width="160" height="70" viewBox="0 0 160 70" fill="none" xmlns="http://www.w3.org/2000/svg">
<g clip-path="url(#clip0_141_5048)">
<path d="M122.772 39.2103L127.372 31.5006L127.973 22.1772L126.941 22.1758L114.2 43.5242L114.738 44.4256L122.772 39.2103ZM123.861 41.0173L115.214 45.218L115.748 46.1221L141.136 46.1677L141.648 45.3049L132.98 41.0256L123.861 41.0173ZM130.035 22.1813L128.928 22.1772L129.475 31.502L134.044 39.2379L142.12 44.5153L142.688 43.5739L130.035 22.1813Z" fill="#D01931"/>
<path d="M94.0487 37.1445L94.0459 40.3264C94.0388 44.0481 91.4127 46.1339 87.7484 46.2347H86.9559C83.2887 46.087 80.6882 44.0039 80.6953 40.3057V37.1238C80.7081 33.3939 83.3342 31.3246 87.0155 31.2225C87.2016 31.2197 87.5623 31.2225 87.7441 31.2225C91.4382 31.3371 94.0586 33.4436 94.0487 37.1445V37.1445ZM87.1177 34.3105C85.6733 34.3878 84.2857 35.1125 84.28 37.1376V40.3264C84.2743 42.2742 85.6591 43.0583 87.105 43.1439C87.1788 43.1522 87.5424 43.1522 87.622 43.148C89.0394 43.0707 90.444 42.3225 90.4468 40.3347L90.4512 37.1445C90.4583 35.1415 89.0522 34.392 87.612 34.3105C87.4345 34.2981 87.2839 34.2981 87.1177 34.3105V34.3105ZM99.5695 37.5327C99.5695 37.5327 104.952 31.5789 105.273 31.2476L109.773 31.2587L103.232 38.441L110.095 45.8388L105.536 45.8319L99.5639 39.377L99.5526 45.8222L95.9323 45.8153L95.9663 27.6806L99.5838 27.6861L99.5695 37.5327ZM48.3823 39.6517L48.3894 37.0855C48.3993 33.3569 45.7192 31.2697 42.0478 31.1482L41.3561 31.1441C37.6606 31.2559 35.0331 33.3321 35.0303 37.0578L35.0232 40.2232C35.0161 43.7737 37.7359 45.9782 41.2511 46.1563C41.6246 46.1632 41.8191 46.1535 42.0705 46.1563C46.472 46.1632 48.1181 43.9959 48.3198 41.5167L45.0076 41.5084C44.9196 41.9777 44.7563 43.1815 41.9825 43.1787C41.4953 43.1732 40.8207 43.0572 40.3364 42.9026C38.2798 42.2331 38.6079 39.7663 38.6079 39.631L48.3823 39.6517ZM38.6051 36.8204C38.6051 34.903 39.916 34.1562 41.4698 34.0968C41.636 34.0927 41.805 34.0885 41.9513 34.0996C43.5263 34.1631 44.8443 34.972 44.8401 36.8342V37.0813L38.5994 37.0758L38.6051 36.8204ZM63.5485 39.6734L63.5541 37.1127C63.5641 33.3841 60.8812 31.2969 57.207 31.1699H56.5209C52.8197 31.2803 50.1851 33.3579 50.1795 37.0823L50.1752 40.2504C50.1681 43.7939 52.885 46.0082 56.4059 46.1835C56.7894 46.1904 56.9754 46.1835 57.2297 46.1835C61.6382 46.1904 63.2729 44.0176 63.476 41.5452L60.1824 41.5328C60.0744 42.0035 59.9253 43.2059 57.1345 43.2017C56.6516 43.1976 55.9841 43.0803 55.5069 42.9243C53.4318 42.2589 53.7728 39.7907 53.7699 39.6582L63.5485 39.6734ZM53.76 36.8504C53.7656 34.9274 55.0823 34.1792 56.6247 34.1226C56.7866 34.1171 56.9627 34.1199 57.1146 34.1268C58.684 34.1875 60.0035 34.9978 59.9992 36.8573V37.1057L53.7557 37.0975L53.76 36.8504ZM72.5564 31.2235C70.879 31.2193 69.73 31.6638 69.098 32.1898L69.1023 27.633L65.509 27.6274L65.4792 45.7622H66.107C66.107 45.7622 67.7034 44.8939 67.79 44.8649C68.0215 45.1037 69.5951 46.226 71.771 46.226C72.0479 46.2288 72.3036 46.2495 72.5734 46.2329C76.2093 46.1597 78.844 43.9662 78.8525 40.3246L78.8553 37.1607C78.8624 33.5992 76.2221 31.2262 72.5564 31.2235V31.2235ZM75.2563 40.3371C75.2549 42.3221 73.8361 43.0689 72.4243 43.1587C72.3505 43.1587 71.9755 43.1559 71.9087 43.1518C70.4657 43.0579 69.081 42.2849 69.081 40.3316L69.0895 37.1441C69.0924 35.1121 70.4828 34.3998 71.9216 34.3073C72.0948 34.2949 72.251 34.2894 72.4271 34.3087C73.8531 34.404 75.2635 35.1356 75.2606 37.1538L75.2563 40.3371ZM34.5685 45.709L27.6618 38.2202C28.0055 38.2395 28.3463 38.2533 28.6957 38.2533C31.0689 38.2561 34.0231 36.8011 34.0274 33.107C34.0402 28.6772 30.2566 27.5688 26.9033 27.566L18.8503 27.5467L18.812 45.68L22.4607 45.6883V37.5948L29.9455 45.7007L34.5685 45.709ZM22.4834 30.654L26.8593 30.6664C28.8803 30.6664 30.6685 31.289 30.6685 33.1567C30.6628 35.03 29.5464 35.7009 26.8493 35.6885L22.4721 35.6857L22.4834 30.654Z" fill="white"/>
</g>
<defs>
<clipPath id="clip0_141_5048">
<rect width="124" height="24" fill="white" transform="translate(18.75 22.2075)"/>
</clipPath>
</defs>
</svg>
