<svg width="160" height="70" viewBox="0 0 160 70" fill="none" xmlns="http://www.w3.org/2000/svg">
<g clip-path="url(#clip0_139_4118)">
<path fill-rule="evenodd" clip-rule="evenodd" d="M26.2285 22.2078C26.7566 22.321 27.289 22.4172 27.8123 22.5503C32.4773 23.7377 35.979 27.797 36.5589 32.6812C37.3072 38.9783 33.3445 44.7148 27.2669 45.9605C20.4026 47.3675 14.4581 42.5786 13.404 36.2822C13.361 36.0253 13.3017 35.7716 13.25 35.5166C13.25 34.6354 13.25 33.7538 13.25 32.8726C13.2742 32.8062 13.3114 32.7414 13.3205 32.6725C13.9523 27.793 17.2756 23.8807 21.9013 22.5912C22.4754 22.4309 23.0668 22.3341 23.6499 22.2075C24.5093 22.2078 25.3689 22.2078 26.2285 22.2078ZM24.4566 43.7343C29.4157 44.0402 34.1391 40.1207 34.264 34.3618C34.3744 29.2673 30.5215 24.7492 25.0815 24.6329C20.1621 24.5274 15.7318 28.4487 15.6165 34.0271C15.5037 39.4535 19.7045 43.5275 24.4566 43.7343Z" fill="#EB9549"/>
<path fill-rule="evenodd" clip-rule="evenodd" d="M132.707 35.5622C134.178 36.9645 135.589 38.3104 137.059 39.7115C136.888 39.7317 136.787 39.7546 136.685 39.7549C135.969 39.7584 135.252 39.7698 134.537 39.7475C134.359 39.7419 134.142 39.6659 134.014 39.5443C132.699 38.3027 131.395 37.0495 130.1 35.7864C129.908 35.5997 129.726 35.5138 129.461 35.5209C128.763 35.538 128.064 35.5265 127.33 35.5265C127.33 36.9366 127.33 38.311 127.33 39.7208C126.603 39.7208 125.91 39.7208 125.182 39.7208C125.182 36.3091 125.182 32.8825 125.182 29.4019C125.322 29.3914 125.471 29.3696 125.622 29.3696C127.841 29.3675 130.06 29.3613 132.279 29.3724C132.964 29.3755 133.644 29.4605 134.268 29.7865C135.184 30.2648 135.66 31.0412 135.738 32.0875C135.896 34.225 134.52 35.3519 132.707 35.5622ZM127.338 33.3924C127.517 33.3924 127.671 33.3924 127.825 33.3924C129.312 33.3924 130.799 33.3924 132.286 33.3924C132.43 33.3924 132.574 33.4045 132.715 33.3878C133.184 33.3335 133.524 32.9942 133.569 32.5503C133.614 32.1076 133.383 31.697 132.99 31.5878C132.744 31.5199 132.485 31.4752 132.232 31.4767C130.676 31.4864 129.121 31.5112 127.565 31.5329C127.497 31.5338 127.429 31.5506 127.338 31.563C127.338 32.1595 127.338 32.741 127.338 33.3924Z" fill="#4B4F58"/>
<path fill-rule="evenodd" clip-rule="evenodd" d="M47.8804 35.6474C49.3344 37.0371 50.7482 38.3889 52.1622 39.74C52.1471 39.7748 52.1317 39.8104 52.1172 39.8452C51.4656 39.8452 50.8117 39.8111 50.1626 39.8554C49.6236 39.8923 49.2279 39.7264 48.8387 39.3365C47.6521 38.1472 46.4298 36.9943 45.2147 35.8348C45.1089 35.7337 44.9555 35.6279 44.8215 35.6242C44.0638 35.6043 43.3055 35.6149 42.4913 35.6149C42.4913 37.0194 42.4913 38.4047 42.4913 39.8163C41.7538 39.8163 41.0718 39.8163 40.3522 39.8163C40.3522 36.3885 40.3522 32.9495 40.3522 29.4785C40.5019 29.4707 40.6416 29.4568 40.7814 29.4568C43.0445 29.4555 45.3082 29.4447 47.5713 29.4658C48.0193 29.4698 48.4754 29.561 48.9122 29.6748C50.1211 29.99 50.8937 31.0505 50.9166 32.4376C50.9414 33.9408 50.0071 35.1232 48.685 35.4753C48.4424 35.5398 48.1941 35.5811 47.8804 35.6474ZM42.4973 33.4647C42.625 33.4709 42.7224 33.4799 42.8191 33.4799C43.9767 33.4808 45.134 33.4805 46.2912 33.4805C46.777 33.4805 47.2634 33.4932 47.7485 33.4761C48.3163 33.4569 48.6838 33.1095 48.7331 32.5803C48.777 32.1144 48.4796 31.7528 47.9309 31.6225C47.7664 31.5837 47.594 31.5626 47.4246 31.562C45.9246 31.5573 44.4241 31.5586 42.9238 31.5601C42.7859 31.5604 42.6482 31.5735 42.497 31.5812C42.4973 32.2143 42.4973 32.812 42.4973 33.4647Z" fill="#4B4F58"/>
<path fill-rule="evenodd" clip-rule="evenodd" d="M115.792 29.1267C117.441 29.1614 118.947 29.5796 120.206 30.7226C122.794 33.0719 122.401 37.283 119.415 39.0985C118.076 39.9125 116.623 40.1851 115.07 40.0368C113.742 39.91 112.539 39.5033 111.508 38.6305C110.347 37.6475 109.734 36.3807 109.674 34.8291C109.621 33.4203 110.017 32.1817 110.946 31.1324C111.896 30.0597 113.102 29.485 114.475 29.2554C114.909 29.1825 115.353 29.168 115.792 29.1267ZM115.801 37.9887C116.508 37.9139 117.237 37.8234 117.913 37.4741C119.049 36.8872 119.683 35.9269 119.71 34.6505C119.734 33.4879 119.228 32.5341 118.228 31.9032C117.622 31.5207 116.963 31.3393 116.257 31.2673C115.203 31.16 114.221 31.3479 113.316 31.9159C111.429 33.1011 111.392 35.8642 113.117 37.1465C113.915 37.7393 114.823 37.9111 115.801 37.9887Z" fill="#4B4F58"/>
<path fill-rule="evenodd" clip-rule="evenodd" d="M59.8205 40.1677C58.4104 40.1305 57.1061 39.7921 55.941 38.9732C52.7648 36.7405 53.0246 31.87 56.4471 30.0287C57.7435 29.3311 59.1124 29.0935 60.5725 29.2362C61.8846 29.3643 63.0785 29.7654 64.0996 30.6212C65.2759 31.6072 65.8881 32.8796 65.9547 34.4581C66.0754 37.3453 64.0337 39.369 61.5909 39.9224C61.0111 40.0539 60.411 40.0883 59.8205 40.1677ZM59.8995 37.9763C60.7833 38.0249 61.652 37.7936 62.4269 37.2442C64.076 36.0745 64.1879 33.7428 62.8486 32.4032C61.3904 30.945 58.3647 30.9081 56.8865 32.3427C55.6068 33.5847 55.5895 35.6682 56.8633 36.9154C57.6945 37.73 58.7174 38.0138 59.8995 37.9763Z" fill="#4B4F58"/>
<path fill-rule="evenodd" clip-rule="evenodd" d="M99.123 35.6103C99.123 37.0195 99.123 38.3815 99.123 39.7795C98.4019 39.7795 97.7108 39.7795 96.9869 39.7795C96.9869 36.3321 96.9869 32.907 96.9869 29.4519C97.1137 29.4432 97.2377 29.4271 97.3617 29.4271C99.7664 29.4255 102.172 29.4206 104.577 29.4296C105.244 29.4324 105.87 29.633 106.427 30.0118C106.983 30.3905 107.345 30.9228 107.485 31.5978C107.732 32.7879 107.549 33.8661 106.64 34.7229C106.099 35.2331 105.445 35.5101 104.707 35.5228C102.977 35.552 101.246 35.565 99.5156 35.5858C99.404 35.5877 99.2912 35.5998 99.123 35.6103ZM99.1405 33.422C100.587 33.422 101.989 33.4241 103.391 33.4207C103.791 33.4198 104.192 33.4195 104.591 33.3872C104.885 33.363 105.138 33.2346 105.282 32.9412C105.618 32.2597 105.217 31.5655 104.466 31.5627C102.763 31.5553 101.059 31.5602 99.3559 31.5618C99.2882 31.5618 99.2213 31.5782 99.1405 31.5888C99.1405 32.1942 99.1405 32.7752 99.1405 33.422Z" fill="#4B4F58"/>
<path fill-rule="evenodd" clip-rule="evenodd" d="M80.1019 31.8544C79.4652 32.3055 78.9056 32.7012 78.2879 33.1389C78.2262 33.0418 78.1842 32.9661 78.1346 32.8967C77.3491 31.7946 76.2538 31.3457 74.9598 31.2921C74.0249 31.2533 73.142 31.4217 72.351 31.945C71.3462 32.6101 70.8529 33.5654 70.9061 34.7981C70.9614 36.0807 71.6148 36.9697 72.7016 37.5252C74.1749 38.2781 76.3352 38.1754 77.6183 36.9074C77.9561 36.5742 78.2459 36.189 78.5904 35.7894C79.1309 36.1716 79.6887 36.5665 80.2691 36.9775C79.8708 37.7725 79.313 38.3938 78.6382 38.8922C77.1636 39.981 75.5046 40.2719 73.7266 40.0405C72.4817 39.8786 71.3686 39.4301 70.4085 38.5867C67.8469 36.336 68.1224 31.9397 71.224 30.1084C72.5773 29.3094 74.0285 29.046 75.5838 29.234C76.8938 29.3922 78.0735 29.8255 79.0629 30.7269C79.4222 31.0548 79.7277 31.4447 80.1019 31.8544Z" fill="#4B4F58"/>
<path fill-rule="evenodd" clip-rule="evenodd" d="M86.0558 34.2754C86.7799 33.5728 87.5025 32.8693 88.2281 32.1683C89.1138 31.3131 89.9994 30.4586 90.8911 29.6099C90.9779 29.5268 91.1031 29.4365 91.2123 29.4349C92.0819 29.4207 92.9512 29.4269 93.8209 29.4269C93.8375 29.4563 93.8538 29.4861 93.8708 29.5156C92.098 31.2049 90.3249 32.8941 88.527 34.6073C90.3231 36.3204 92.0986 38.0147 93.9428 39.7746C93.7344 39.7939 93.6137 39.8137 93.4936 39.8144C92.849 39.8171 92.2035 39.796 91.5602 39.8227C91.2135 39.8373 90.9628 39.7123 90.7226 39.4775C89.5115 38.2913 88.2944 37.1126 87.0763 35.9342C86.736 35.6051 86.3861 35.2869 85.9717 34.8988C85.9717 35.2388 85.9717 35.4947 85.9717 35.7509C85.9717 36.97 85.959 38.189 85.9796 39.408C85.9856 39.765 85.8743 39.8714 85.5382 39.8513C85.0957 39.8249 84.6496 39.8252 84.2071 39.8513C83.8759 39.8708 83.7981 39.7393 83.7993 39.4192C83.8102 36.9222 83.8057 34.4249 83.8057 31.9282C83.8057 31.1211 83.8057 30.314 83.8057 29.4666C84.5047 29.4666 85.1822 29.4666 85.9284 29.4666C85.9284 31.0495 85.9284 32.6407 85.9284 34.232C85.9711 34.2465 86.0134 34.2608 86.0558 34.2754Z" fill="#4B4F58"/>
<path fill-rule="evenodd" clip-rule="evenodd" d="M144.344 39.7354C143.589 39.7354 142.907 39.7354 142.177 39.7354C142.177 36.9788 142.177 34.2421 142.177 31.4405C140.836 31.4405 139.544 31.4405 138.232 31.4405C138.232 30.7336 138.232 30.0915 138.232 29.3936C141.563 29.3936 144.888 29.3936 148.25 29.3936C148.25 30.0344 148.25 30.7115 148.25 31.4355C146.953 31.4355 145.67 31.4355 144.344 31.4355C144.344 34.2197 144.344 36.9574 144.344 39.7354Z" fill="#4B4F58"/>
<path fill-rule="evenodd" clip-rule="evenodd" d="M20.1554 29.3062C20.3084 29.2966 20.447 29.2801 20.5858 29.2801C22.2186 29.278 23.8525 29.2448 25.4834 29.2935C26.2487 29.3164 27.0318 29.4151 27.7674 29.6248C29.8176 30.2095 30.9824 31.814 31.039 33.9981C31.0462 34.2744 31.0396 34.5514 31.0396 34.8635C30.1842 34.8635 29.3642 34.8635 28.4746 34.8635C28.4746 34.6057 28.4849 34.36 28.4728 34.1159C28.3996 32.6407 27.7611 31.8727 26.327 31.7616C25.1471 31.6707 23.9554 31.743 22.7064 31.743C22.7064 34.4484 22.7064 37.157 22.7064 39.8987C21.8247 39.8987 21.0044 39.8987 20.1548 39.8987C20.1554 36.3766 20.1554 32.8609 20.1554 29.3062Z" fill="#EB9549"/>
</g>
<defs>
<clipPath id="clip0_139_4118">
<rect width="135" height="24" fill="white" transform="translate(13.25 22.2075)"/>
</clipPath>
</defs>
</svg>
