<svg width="161" height="70" viewBox="0 0 161 70" fill="none" xmlns="http://www.w3.org/2000/svg">
<g clip-path="url(#clip0_141_4761)">
<path d="M29.7351 21.9438C24.1458 21.9808 19.343 24.1908 16.5304 27.366C26.7545 25.2985 35.1381 26.0568 41.3756 27.0321C41.3999 26.8615 41.4381 26.6965 41.4568 26.5409C41.4617 26.5008 41.4552 26.4631 41.4568 26.423V26.3052C41.4966 25.5461 41.0798 24.8231 40.3801 24.4781C36.7247 22.6729 33.0887 21.9217 29.7351 21.9438ZM65.7535 25.7354L62.6047 39.3106H66.2817L69.4305 25.7354H65.7535ZM130.213 25.7354L128.933 31.413H128.892C128.347 30.4001 127.075 29.6646 125.236 29.6646C121.637 29.6646 119.893 32.5431 119.893 35.6368C119.893 37.7531 121.55 39.5267 123.813 39.5267C125.836 39.5267 126.703 38.8469 127.633 37.7979H127.673L127.389 39.3106H130.741C130.781 38.931 130.843 38.4572 130.964 37.8961L133.788 25.7354H130.213ZM92.5895 26.6784L89.5219 39.3106H92.9551L95.4132 28.9573H95.4539L95.9617 39.3106H99.5372L105.063 28.9573H105.103L102.544 39.3106H106.221L109.207 26.6784H103.194L98.7652 35.1654H98.7246L98.5011 26.6784H92.5895ZM145.083 27.6018C144.298 27.6018 143.661 28.2179 143.661 28.977C143.661 29.7369 144.298 30.3522 145.083 30.3522C145.868 30.3522 146.505 29.7369 146.505 28.977C146.505 28.2179 145.868 27.6018 145.083 27.6018ZM145.083 27.8572C145.721 27.8572 146.221 28.3617 146.221 28.977C146.221 29.5923 145.721 30.0968 145.083 30.0968C144.447 30.0968 143.925 29.5923 143.925 28.977C143.925 28.3617 144.447 27.8572 145.083 27.8572ZM144.657 28.1911L144.352 29.6056H144.657L144.778 29.0556H145.083C145.311 29.0556 145.307 29.1365 145.266 29.3306C145.234 29.4768 145.24 29.5381 145.246 29.6056H145.571L145.591 29.5663C145.533 29.5428 145.525 29.4988 145.571 29.2913C145.63 29.0273 145.579 28.9872 145.469 28.9377C145.625 28.8897 145.74 28.7593 145.774 28.6037C145.801 28.4811 145.797 28.1911 145.408 28.1911H144.657ZM144.9 28.4465H145.286C145.466 28.4465 145.485 28.5487 145.469 28.6234C145.437 28.7632 145.344 28.8198 145.185 28.8198H144.819L144.9 28.4465ZM46.9622 29.6646C45.3248 29.6646 44.1742 29.8885 43.1023 30.2147L42.7367 32.5721C43.9491 32.0118 44.8356 31.8452 46.1496 31.8452C47.3416 31.8452 48.0998 32.3741 48.0998 33.0436C48.0998 33.1701 48.0998 33.31 48.0592 33.4365C47.5537 33.4004 46.8167 33.3383 46.0886 33.3383C42.8748 33.3383 40.2989 34.4809 40.2989 36.7959C40.2989 38.623 41.5495 39.5267 43.8134 39.5267C45.2281 39.5267 46.5803 39.0796 47.3482 37.9943V37.955L47.3888 37.9943L47.2263 39.3106H50.1922C50.5969 36.4706 51.533 34.3505 51.533 32.8668C51.533 30.551 49.469 29.6646 46.9622 29.6646ZM75.1593 29.6646C71.0353 29.6646 68.3538 31.9144 68.3538 35.2243C68.3538 37.5943 69.9375 39.5267 73.8388 39.5267C77.7807 39.5267 80.624 37.8136 80.624 33.8884C80.624 31.5191 78.7371 29.6646 75.1593 29.6646ZM88.7906 29.6646C87.2946 29.6646 86.1261 30.7223 85.5402 31.8256H85.4996L85.9059 29.8807H82.5336C82.4328 30.7309 82.2687 31.5223 82.0866 32.3364L80.4411 39.3106H84.0775L85.1136 34.9689C85.3768 33.5756 86.3 32.3757 87.8358 32.3757C88.5232 32.3757 89.0368 32.4621 89.5016 32.7882L90.3345 29.9003C89.8502 29.7196 89.2757 29.6646 88.7906 29.6646ZM114.591 29.6646C112.953 29.6646 111.802 29.8885 110.731 30.2147L110.365 32.5721C111.577 32.0118 112.464 31.8452 113.778 31.8452C114.971 31.8452 115.708 32.3741 115.708 33.0436C115.708 33.1701 115.708 33.31 115.667 33.4365C115.162 33.4004 114.445 33.3383 113.717 33.3383C110.502 33.3383 107.907 34.4809 107.907 36.7959C107.907 38.623 109.178 39.5267 111.442 39.5267C112.856 39.5267 114.208 39.0796 114.976 37.9943V37.955L115.017 37.9943L114.855 39.3106H117.821C118.225 36.4706 119.161 34.3505 119.161 32.8668C119.161 30.551 117.097 29.6646 114.591 29.6646ZM138.989 29.6646C134.299 29.6646 132.691 33.0358 132.691 35.2243C132.691 37.5943 134.599 39.5267 138.115 39.5267C139.167 39.5267 140.519 39.3404 141.792 38.9963L142.259 36.6977C141.249 37.1315 139.938 37.346 138.968 37.346C136.744 37.346 136.165 36.5515 136.124 35.5386H143.58C143.722 34.9783 143.844 34.1509 143.844 33.7705C143.844 30.9132 141.758 29.6646 138.989 29.6646ZM51.9596 29.8807L54.2755 39.2713C53.8514 40.2308 53.194 40.8233 52.1628 40.8233C51.4753 40.8233 50.9618 40.6748 50.497 40.5483L49.725 42.9254C50.4125 43.1234 51.2957 43.3183 52.5894 43.3183C54.9142 43.3183 56.1088 42.2126 57.1806 40.5483L64.0876 29.8807H60.2278L56.6524 35.8333H56.6118L55.657 29.8807H51.9596ZM25.4893 31.5506C25.2084 31.5587 24.9206 31.5681 24.5955 31.6095C20.2635 32.1627 16.8953 33.2401 15.1084 33.908C15.1905 34.2734 15.2782 34.4998 15.2912 34.5367C15.2921 34.539 15.3115 34.6153 15.3115 34.6153C16.0549 37.0198 18.4905 39.7977 22.5437 42.8664C22.6964 42.982 22.8443 43.0928 22.9906 43.2004C25.3788 39.7687 26.6855 37.1684 27.6021 34.4188C28.3145 32.2797 27.4559 31.4938 25.4893 31.5506ZM38.5112 31.6291C38.3143 31.6331 38.1191 31.6523 37.922 31.6684C35.4022 31.8743 34.4441 33.5316 33.0668 35.6565C31.9966 37.3067 28.5187 43.2295 27.0129 45.7936C28.7755 46.6101 30.421 46.6565 32.2136 46.108C33.4446 45.7308 34.0736 45.4235 34.7732 44.9292C35.0065 44.7642 35.2088 44.5921 35.3624 44.3792L35.4233 44.3006C35.4436 44.2731 35.4647 44.2503 35.4843 44.222C37.7481 40.8084 39.3717 35.5952 40.1364 32.7882C40.2282 32.4519 40.3159 32.0991 40.4005 31.7667C39.7069 31.6576 39.1017 31.6172 38.5112 31.6291ZM139.029 31.8452C140.363 31.8452 140.817 32.679 140.817 33.6919H136.348C136.611 32.7882 137.453 31.8452 139.029 31.8452ZM74.9764 31.9435C76.3912 31.9435 76.8657 32.8731 76.8657 33.8491C76.8657 35.9842 75.8012 37.2478 74.1029 37.2478C72.8702 37.2659 72.1323 36.4117 72.1323 35.1457C72.1324 33.644 73.218 31.9435 74.9764 31.9435ZM126.414 32.1596C127.627 32.1596 128.141 33.1442 128.141 34.0848C128.141 35.3327 127.117 37.0317 125.398 37.0317C124.246 37.0317 123.651 36.2443 123.651 35.0868C123.651 33.6212 124.696 32.1596 126.414 32.1596ZM46.7387 35.0671C46.9614 35.0671 47.4107 35.0726 47.7138 35.1261C47.4514 36.3928 46.5274 37.346 44.9713 37.346C44.2034 37.346 43.7321 36.8572 43.7321 36.4227C43.7321 35.5905 45.0006 35.0129 46.7387 35.0671ZM114.367 35.0671C114.589 35.0671 115.039 35.0726 115.342 35.1261C115.08 36.3928 114.135 37.346 112.579 37.346C111.811 37.346 111.36 36.8572 111.36 36.4227C111.36 35.5905 112.629 35.0129 114.367 35.0671Z" fill="white"/>
</g>
<defs>
<clipPath id="clip0_141_4761">
<rect width="133" height="26" fill="white" transform="translate(14.3069 21.2075)"/>
</clipPath>
</defs>
</svg>
