<svg width="161" height="70" viewBox="0 0 161 70" fill="none" xmlns="http://www.w3.org/2000/svg">
<g clip-path="url(#clip0_138_6997)">
<path d="M29.792 21.9438C24.2027 21.9808 19.3999 24.1908 16.5873 27.366C26.8114 25.2985 35.1949 26.0568 41.4324 27.0321C41.4568 26.8615 41.495 26.6965 41.5137 26.5409C41.5186 26.5008 41.5121 26.4631 41.5137 26.423V26.3052C41.5535 25.5461 41.1366 24.8231 40.437 24.4781C36.7815 22.6729 33.1456 21.9217 29.792 21.9438ZM65.8103 25.7354L62.6615 39.3106H66.3385L69.4873 25.7354H65.8103ZM130.27 25.7354L128.99 31.413H128.949C128.404 30.4001 127.132 29.6646 125.292 29.6646C121.694 29.6646 119.95 32.5431 119.95 35.6368C119.95 37.7531 121.606 39.5267 123.87 39.5267C125.893 39.5267 126.76 38.8469 127.69 37.7979H127.73L127.446 39.3106H130.798C130.838 38.931 130.9 38.4572 131.021 37.8961L133.845 25.7354H130.27ZM92.6463 26.6784L89.5788 39.3106H93.012L95.4701 28.9573H95.5107L96.0186 39.3106H99.594L105.12 28.9573H105.16L102.601 39.3106H106.278L109.264 26.6784H103.251L98.822 35.1654H98.7814L98.5579 26.6784H92.6463ZM145.14 27.6018C144.355 27.6018 143.718 28.2179 143.718 28.977C143.718 29.7369 144.355 30.3522 145.14 30.3522C145.925 30.3522 146.562 29.7369 146.562 28.977C146.562 28.2179 145.925 27.6018 145.14 27.6018ZM145.14 27.8572C145.778 27.8572 146.278 28.3617 146.278 28.977C146.278 29.5923 145.778 30.0968 145.14 30.0968C144.504 30.0968 143.982 29.5923 143.982 28.977C143.982 28.3617 144.504 27.8572 145.14 27.8572ZM144.713 28.1911L144.409 29.6056H144.713L144.835 29.0556H145.14C145.368 29.0556 145.364 29.1365 145.323 29.3306C145.291 29.4768 145.297 29.5381 145.303 29.6056H145.628L145.648 29.5663C145.589 29.5428 145.582 29.4988 145.628 29.2913C145.687 29.0273 145.636 28.9872 145.526 28.9377C145.682 28.8897 145.797 28.7593 145.831 28.6037C145.858 28.4811 145.854 28.1911 145.465 28.1911H144.713ZM144.957 28.4465H145.343C145.523 28.4465 145.541 28.5487 145.526 28.6234C145.494 28.7632 145.401 28.8198 145.242 28.8198H144.876L144.957 28.4465ZM47.019 29.6646C45.3816 29.6646 44.231 29.8885 43.1592 30.2147L42.7935 32.5721C44.0059 32.0118 44.8925 31.8452 46.2064 31.8452C47.3985 31.8452 48.1567 32.3741 48.1567 33.0436C48.1567 33.1701 48.1567 33.31 48.116 33.4365C47.6106 33.4004 46.8736 33.3383 46.1455 33.3383C42.9317 33.3383 40.3557 34.4809 40.3557 36.7959C40.3557 38.623 41.6063 39.5267 43.8702 39.5267C45.2849 39.5267 46.6371 39.0796 47.405 37.9943V37.955L47.4456 37.9943L47.2831 39.3106H50.2491C50.6538 36.4706 51.5899 34.3505 51.5899 32.8668C51.5899 30.551 49.5259 29.6646 47.019 29.6646ZM75.2161 29.6646C71.0922 29.6646 68.4106 31.9144 68.4106 35.2243C68.4106 37.5943 69.9944 39.5267 73.8957 39.5267C77.8376 39.5267 80.6808 37.8136 80.6808 33.8884C80.6808 31.5191 78.794 29.6646 75.2161 29.6646ZM88.8474 29.6646C87.3514 29.6646 86.1829 30.7223 85.597 31.8256H85.5564L85.9627 29.8807H82.5904C82.4897 30.7309 82.3255 31.5223 82.1435 32.3364L80.498 39.3106H84.1344L85.1704 34.9689C85.4337 33.5756 86.3568 32.3757 87.8926 32.3757C88.5801 32.3757 89.0936 32.4621 89.5584 32.7882L90.3914 29.9003C89.907 29.7196 89.3325 29.6646 88.8474 29.6646ZM114.647 29.6646C113.01 29.6646 111.859 29.8885 110.788 30.2147L110.422 32.5721C111.634 32.0118 112.521 31.8452 113.835 31.8452C115.028 31.8452 115.765 32.3741 115.765 33.0436C115.765 33.1701 115.765 33.31 115.724 33.4365C115.219 33.4004 114.502 33.3383 113.774 33.3383C110.559 33.3383 107.964 34.4809 107.964 36.7959C107.964 38.623 109.235 39.5267 111.499 39.5267C112.913 39.5267 114.265 39.0796 115.033 37.9943V37.955L115.074 37.9943L114.911 39.3106H117.877C118.282 36.4706 119.218 34.3505 119.218 32.8668C119.218 30.551 117.154 29.6646 114.647 29.6646ZM139.046 29.6646C134.356 29.6646 132.748 33.0358 132.748 35.2243C132.748 37.5943 134.656 39.5267 138.172 39.5267C139.224 39.5267 140.576 39.3404 141.849 38.9963L142.316 36.6977C141.306 37.1315 139.995 37.346 139.025 37.346C136.801 37.346 136.222 36.5515 136.181 35.5386H143.637C143.779 34.9783 143.901 34.1509 143.901 33.7705C143.901 30.9132 141.815 29.6646 139.046 29.6646ZM52.0165 29.8807L54.3324 39.2713C53.9082 40.2308 53.2508 40.8233 52.2196 40.8233C51.5322 40.8233 51.0186 40.6748 50.5538 40.5483L49.7819 42.9254C50.4693 43.1234 51.3526 43.3183 52.6463 43.3183C54.9711 43.3183 56.1656 42.2126 57.2374 40.5483L64.1445 29.8807H60.2847L56.7092 35.8333H56.6686L55.7138 29.8807H52.0165ZM25.5462 31.5506C25.2652 31.5587 24.9775 31.5681 24.6523 31.6095C20.3204 32.1627 16.9522 33.2401 15.1653 33.908C15.2473 34.2734 15.3351 34.4998 15.3481 34.5367C15.3489 34.539 15.3684 34.6153 15.3684 34.6153C16.1117 37.0198 18.5473 39.7977 22.6005 42.8664C22.7533 42.982 22.9012 43.0928 23.0474 43.2004C25.4357 39.7687 26.7423 37.1684 27.6589 34.4188C28.3714 32.2797 27.5128 31.4938 25.5462 31.5506ZM38.568 31.6291C38.3712 31.6331 38.176 31.6523 37.9789 31.6684C35.459 31.8743 34.501 33.5316 33.1236 35.6565C32.0534 37.3067 28.5755 43.2295 27.0698 45.7936C28.8323 46.6101 30.4778 46.6565 32.2704 46.108C33.5015 45.7308 34.1304 45.4235 34.8301 44.9292C35.0633 44.7642 35.2656 44.5921 35.4192 44.3792L35.4802 44.3006C35.5005 44.2731 35.5216 44.2503 35.5411 44.222C37.805 40.8084 39.4286 35.5952 40.1932 32.7882C40.285 32.4519 40.3728 32.0991 40.4573 31.7667C39.7638 31.6576 39.1585 31.6172 38.568 31.6291ZM139.086 31.8452C140.42 31.8452 140.874 32.679 140.874 33.6919H136.405C136.668 32.7882 137.51 31.8452 139.086 31.8452ZM75.0333 31.9435C76.448 31.9435 76.9226 32.8731 76.9226 33.8491C76.9226 35.9842 75.8581 37.2478 74.1597 37.2478C72.927 37.2659 72.1892 36.4117 72.1892 35.1457C72.1892 33.644 73.2748 31.9435 75.0333 31.9435ZM126.471 32.1596C127.684 32.1596 128.197 33.1442 128.197 34.0848C128.197 35.3327 127.174 37.0317 125.455 37.0317C124.303 37.0317 123.708 36.2443 123.708 35.0868C123.708 33.6212 124.753 32.1596 126.471 32.1596ZM46.7956 35.0671C47.0182 35.0671 47.4676 35.0726 47.7707 35.1261C47.5082 36.3928 46.5843 37.346 45.0282 37.346C44.2603 37.346 43.789 36.8572 43.789 36.4227C43.789 35.5905 45.0574 35.0129 46.7956 35.0671ZM114.424 35.0671C114.646 35.0671 115.096 35.0726 115.399 35.1261C115.137 36.3928 114.192 37.346 112.636 37.346C111.868 37.346 111.417 36.8572 111.417 36.4227C111.417 35.5905 112.686 35.0129 114.424 35.0671Z" fill="#101010"/>
</g>
<defs>
<clipPath id="clip0_138_6997">
<rect width="133" height="26" fill="white" transform="translate(14.3636 21.2075)"/>
</clipPath>
</defs>
</svg>
